<svg width="11" height="18" viewBox="0 0 11 18" xmlns="http://www.w3.org/2000/svg"><title></title><path d="M3.638.286c-.11.88-.312 1.607-.602 2.187-.29.57-.67 1.06-1.15 1.473-.48.402-1.06.715-1.73.938v2.422h1.898v6.015c0 .783.078 1.385.245 1.798.155.413.457.804.88 1.172.425.357.938.648 1.54.837.604.2 1.296.302 2.077.302.692 0 1.34-.068 1.93-.213.592-.134 1.25-.38 1.987-.726v-2.7c-.86.57-1.718.848-2.59.848-.49 0-.925-.11-1.305-.346-.28-.167-.48-.39-.58-.67-.113-.29-.157-.926-.157-1.92V7.307h4.062v-2.69H6.083V.286H3.638z" fill="#745486" fill-rule="evenodd"/></svg>