<?xml version="1.0" encoding="UTF-8" standalone="no"?>
<svg width="18px" height="15px" viewBox="0 0 18 15" version="1.1" xmlns="http://www.w3.org/2000/svg" xmlns:xlink="http://www.w3.org/1999/xlink" xmlns:sketch="http://www.bohemiancoding.com/sketch/ns">
    <!-- Generator: Sketch 3.3.1 (12002) - http://www.bohemiancoding.com/sketch -->
    <title></title>
    <desc>Created with Sketch.</desc>
    <defs></defs>
    <g id="Page-1" stroke="none" stroke-width="1" fill="none" fill-rule="evenodd" sketch:type="MSPage">
        <g id="Desktop-Copy-3" sketch:type="MSArtboardGroup" transform="translate(-435.000000, -1487.000000)" fill="#745486">
            <g id="-+--+-" sketch:type="MSLayerGroup" transform="translate(385.000000, 1486.000000)">
                <path d="M67.7946644,3.41069928 C67.1473422,3.68971747 66.4442164,3.89061056 65.7187691,3.96873566 C66.4665378,3.52230655 67.0357349,2.81918072 67.3035924,1.98212615 C66.6116273,2.39507307 65.8303764,2.69641271 65.0156432,2.8526629 C64.3571603,2.14953706 63.4196592,1.71426868 62.3817115,1.71426868 C60.3839413,1.71426868 58.7767965,3.33257418 58.7767965,5.3191837 C58.7767965,5.59820189 58.8102787,5.87722008 58.8660823,6.14507754 C55.8750073,5.98882735 53.2075935,4.56025422 51.4330378,2.37275161 C51.1205374,2.90846654 50.9419657,3.52230655 50.9419657,4.19195021 C50.9419657,5.4419517 51.5781272,6.54686373 52.5491105,7.19418593 C51.957592,7.17186448 51.3995556,7.00445356 50.9196443,6.7365961 L50.9196443,6.78123901 C50.9196443,8.53347324 52.1584851,9.98436783 53.8102727,10.3191897 C53.5089331,10.3973147 53.185272,10.4419577 52.8616109,10.4419577 C52.6272356,10.4419577 52.4040211,10.4196362 52.1808065,10.386154 C52.6383963,11.8147272 53.9665229,12.8526748 55.5513462,12.886157 C54.3125055,13.8571403 52.7611643,14.4263374 51.0758945,14.4263374 C50.7745548,14.4263374 50.4955366,14.4151767 50.2053577,14.3816945 C51.8013418,15.4084814 53.6986655,16 55.7410786,16 C62.3705508,16 65.9977873,10.508922 65.9977873,5.74329134 C65.9977873,5.58704116 65.9977873,5.43079097 65.9866265,5.27454079 C66.6897524,4.76114732 67.3035924,4.12498584 67.7946644,3.41069928 L67.7946644,3.41069928 Z" id="" sketch:type="MSShapeGroup"></path>
            </g>
        </g>
    </g>
</svg>