<svg width="18" height="17" viewBox="0 0 18 17" xmlns="http://www.w3.org/2000/svg"><title></title><path d="M4.324 5.833H.64v11.06h3.684V5.833zm.234-3.416C4.548 1.335 3.766.51 2.504.51 1.254.51.43 1.334.43 2.416c0 1.06.79 1.91 2.03 1.91h.022c1.284 0 2.087-.85 2.076-1.91zm13.013 8.137c0-3.393-1.807-4.978-4.228-4.978-1.987 0-2.858 1.105-3.338 1.864h.023V5.833H6.355s.045 1.038 0 11.06h3.672V10.72c0-.334.033-.658.123-.903.267-.66.87-1.34 1.886-1.34 1.328 0 1.864 1.016 1.864 2.5v5.916h3.67v-6.34z" fill="#69884F" fill-rule="evenodd"/></svg>