<svg width="18" height="17" viewBox="0 0 18 17" xmlns="http://www.w3.org/2000/svg"><title></title><path d="M17.143 8.857c0-4.732-3.84-8.57-8.572-8.57C3.84.286 0 4.124 0 8.856c0 3.784 2.455 6.998 5.86 8.136.435.078.59-.19.59-.413 0-.2-.01-.88-.01-1.596 0 0-2.39.514-2.89-1.015 0 0-.392-.995-.95-1.25 0 0-.78-.537.056-.526 0 0 .848.067 1.317.882.748 1.317 1.998.937 2.49.714.077-.558.3-.926.546-1.15-1.91-.21-3.907-.948-3.907-4.23 0-.937.335-1.707.88-2.298-.088-.224-.378-1.094.08-2.277.725-.223 2.366.882 2.366.882.68-.19 1.416-.29 2.14-.29.727 0 1.463.1 2.144.29 0 0 1.64-1.105 2.355-.882.468 1.183.178 2.053.088 2.277.547.59.882 1.36.882 2.3 0 3.29-2.01 4.017-3.917 4.23.312.266.58.78.58 1.583v2.355c0 .224.145.49.58.413 3.405-1.138 5.86-4.352 5.86-8.136z" fill="#745486" fill-rule="evenodd"/></svg>