<?xml version="1.0" encoding="UTF-8" standalone="no"?>
<svg width="18px" height="18px" viewBox="0 0 18 18" version="1.1" xmlns="http://www.w3.org/2000/svg" xmlns:xlink="http://www.w3.org/1999/xlink" xmlns:sketch="http://www.bohemiancoding.com/sketch/ns">
    <!-- Generator: Sketch 3.5.2 (25235) - http://www.bohemiancoding.com/sketch -->
    <title></title>
    <desc>Created with Sketch.</desc>
    <defs></defs>
    <g id="Page-1" stroke="none" stroke-width="1" fill="none" fill-rule="evenodd" sketch:type="MSPage">
        <g id="Desktop-Copy-3" sketch:type="MSArtboardGroup" transform="translate(-343.000000, -1486.000000)" fill="#745486">
            <g id="-+--+-" sketch:type="MSLayerGroup" transform="translate(343.000000, 1486.000000)">
                <path d="M11.4285851,15.5982138 C10.5468876,15.9665178 9.587065,16.1785716 8.57143879,16.1785716 C6.7968831,16.1785716 5.1785776,15.5424102 3.90625466,14.5044625 C3.90625466,14.5044625 4.0067012,14.5714269 4.07366557,14.6272305 C5.47991725,11.5691911 9.82144028,10.0513322 9.82144028,10.0513322 C9.83260101,10.0513322 9.85492246,10.0401715 9.86608319,10.0401715 C10.8928701,12.7187461 11.3169778,14.9508916 11.4285851,15.5982138 L11.4285851,15.5982138 Z M9.36385045,8.82365216 C9.27456463,8.85713434 9.17411808,8.8794558 9.07367153,8.91293798 C9.07367153,8.91293798 5.12277396,10.1852609 3.12500373,13.745533 C1.96428806,12.4508886 1.25000149,10.7321366 1.25000149,8.85713434 C1.25000149,8.77900925 1.25000149,8.70088416 1.26116222,8.62275906 C1.38393022,8.62275906 5.00000596,8.71204488 8.77233189,7.5848114 C8.98438571,7.99775832 9.18527881,8.41070524 9.36385045,8.82365216 L9.36385045,8.82365216 Z M8.1696526,6.45757791 C4.65402341,7.3839183 1.59598405,7.35043612 1.40625168,7.35043612 C1.88616296,5.08480842 3.40402192,3.19864545 5.44643506,2.23882288 C5.54688161,2.37275161 6.89732965,4.20311094 8.1696526,6.45757791 L8.1696526,6.45757791 Z M15.8035903,10.01785 C15.4687684,12.0602632 14.3080528,13.8236581 12.6674258,14.9285702 C12.5893007,14.4933018 12.1986753,12.3392814 11.2388527,9.69418891 C13.6049269,9.3258849 15.6473401,9.9732071 15.8035903,10.01785 L15.8035903,10.01785 Z M6.81920456,1.74775087 C6.80804383,1.74775087 6.7968831,1.75891159 6.7968831,1.75891159 C6.80804383,1.74775087 6.80804383,1.74775087 6.81920456,1.74775087 L6.81920456,1.74775087 Z M13.4040338,3.36605637 C13.3817124,3.39953855 12.3437647,4.98436187 9.587065,6.01114881 C8.33706351,3.71203892 6.95313329,1.89284033 6.84152601,1.74775087 C7.39956239,1.61382214 7.97992023,1.53569704 8.57143879,1.53569704 C10.4241196,1.53569704 12.1205502,2.22766215 13.4040338,3.36605637 L13.4040338,3.36605637 Z M15.8928761,8.77900925 C15.8035903,8.76784852 13.314748,8.22097287 10.7924236,8.54463397 C10.7366199,8.42186597 10.691977,8.28793724 10.6361734,8.16516923 C10.4799232,7.80802595 10.3125123,7.45088267 10.1451014,7.10490011 C13.0357298,5.92186299 14.2076062,4.22543239 14.2299277,4.20311094 C15.2567146,5.45311243 15.8705546,7.04909647 15.8928761,8.77900925 L15.8928761,8.77900925 Z M17.1428776,8.85713434 C17.1428776,4.12498584 13.3035873,0.285695553 8.57143879,0.285695553 C3.83929029,0.285695553 0,4.12498584 0,8.85713434 C0,13.5892828 3.83929029,17.4285731 8.57143879,17.4285731 C13.3035873,17.4285731 17.1428776,13.5892828 17.1428776,8.85713434 L17.1428776,8.85713434 Z" id="" sketch:type="MSShapeGroup"></path>
            </g>
        </g>
    </g>
</svg>