<svg width="18" height="15" viewBox="0 0 18 15" xmlns="http://www.w3.org/2000/svg"><title></title><path d="M17.795 2.41c-.648.28-1.35.48-2.076.56.747-.448 1.316-1.15 1.584-1.988-.692.413-1.474.714-2.288.87-.66-.702-1.596-1.138-2.634-1.138-1.998 0-3.605 1.62-3.605 3.605 0 .278.033.557.09.825-2.992-.156-5.66-1.585-7.434-3.772-.312.535-.49 1.15-.49 1.82 0 1.25.635 2.354 1.606 3-.592-.02-1.15-.19-1.63-.456v.044c0 1.753 1.238 3.204 2.89 3.54-.3.077-.625.122-.948.122-.235 0-.458-.022-.68-.056.456 1.43 1.785 2.467 3.37 2.5-1.24.97-2.79 1.54-4.476 1.54-.3 0-.58-.01-.87-.044C1.8 14.408 3.698 15 5.74 15 12.37 15 16 9.51 16 4.743c0-.156 0-.312-.01-.468.702-.514 1.316-1.15 1.807-1.864z" fill="#745486" fill-rule="evenodd"/></svg>