<?xml version="1.0" encoding="UTF-8" standalone="no"?>
<svg width="18px" height="17px" viewBox="0 0 18 17" version="1.1" xmlns="http://www.w3.org/2000/svg" xmlns:xlink="http://www.w3.org/1999/xlink" xmlns:sketch="http://www.bohemiancoding.com/sketch/ns">
    <!-- Generator: Sketch 3.3.1 (12002) - http://www.bohemiancoding.com/sketch -->
    <title></title>
    <desc>Created with Sketch.</desc>
    <defs></defs>
    <g id="Page-1" stroke="none" stroke-width="1" fill="none" fill-rule="evenodd" sketch:type="MSPage">
        <g id="Desktop-Copy-3" sketch:type="MSArtboardGroup" transform="translate(-540.000000, -1486.000000)" fill="#745486">
            <g id="-+--+-" sketch:type="MSLayerGroup" transform="translate(385.000000, 1486.000000)">
                <path d="M159.323665,5.83257717 L155.640625,5.83257717 L155.640625,16.8928582 L159.323665,16.8928582 L159.323665,5.83257717 Z M159.558041,2.41739452 C159.54688,1.33480395 158.765629,0.508910105 157.504467,0.508910105 C156.254465,0.508910105 155.428571,1.33480395 155.428571,2.41739452 C155.428571,3.47766364 156.220983,4.32587894 157.459824,4.32587894 L157.482145,4.32587894 C158.765629,4.32587894 159.569201,3.47766364 159.558041,2.41739452 L159.558041,2.41739452 Z M172.571449,10.5535649 C172.571449,7.16070375 170.763411,5.57588043 168.341533,5.57588043 C166.354924,5.57588043 165.484387,6.68079246 165.004476,7.43972194 L165.026797,7.43972194 L165.026797,5.83257717 L161.354918,5.83257717 C161.354918,5.83257717 161.399561,6.87052483 161.354918,16.8928582 L165.026797,16.8928582 L165.026797,10.7209758 C165.026797,10.386154 165.060279,10.0624929 165.149565,9.81695691 C165.417423,9.15847399 166.020102,8.4776696 167.035728,8.4776696 C168.363855,8.4776696 168.89957,9.49329581 168.89957,10.9776726 L168.89957,16.8928582 L172.571449,16.8928582 L172.571449,10.5535649 Z" id="" sketch:type="MSShapeGroup"></path>
            </g>
        </g>
    </g>
</svg>