<svg width="339" height="252" viewBox="0 0 339 252" xmlns="http://www.w3.org/2000/svg"><title>Artboard 1</title><defs><path id="a" d="M0 .886h64.79v27.98H0V.887z"/></defs><g fill="none" fill-rule="evenodd"><path d="M237.906 12H334v234H4V12h88.125" stroke="#313120" stroke-width="4"/><path d="M175.73 17.988c0-.486.05-.973.13-1.485 1.972-.358 4.333-2.662 4.333-4.685 0-.92-.495-1.587-1.48-1.587-2.49 0-4.304 4.38-4.304 7.863 0 2.276.775 4.17 2.772 4.17 2.386 0 3.918-3.737 4.772-6.093 0-.076-.335-.256-.467-.256-.908 2.38-2.282 5.146-3.968 5.146-1.296 0-1.79-1.357-1.79-3.072zm2.855-7.066c.337 0 .518.308.518.922 0 1.203-.987 2.995-3.166 3.994.44-2.38 1.532-4.916 2.648-4.916zM139.005 3.652c-.467 2.79-1.038 5.683-1.608 8.704h-3.994c.57-2.995 1.063-5.81 1.556-8.704h-1.402c-.492 2.79-1.037 5.683-1.608 8.704h-1.4l-.156.82h1.4c-.544 2.918-1.114 5.913-1.633 8.908h1.375c.623-3.123 1.168-6.042 1.712-8.91h3.994c-.543 2.92-1.114 5.915-1.66 8.91h1.402c1.426-7.142 2.412-12.672 3.397-18.432h-1.375zM154.67 15.914c-.908 2.304-2.18 3.968-3.45 5.35.804-4.428 1.764-9.727 2.075-10.854h-1.348c-.234 1.024-.545 2.765-.882 4.662-.65 3.044-1.842 6.04-2.775 6.04-.337 0-.57-.308-.57-1.127 0-2.663 1.426-8.167 1.685-9.575h-1.375c-.18.973-1.4 5.684-1.53 8.756 0 1.817.26 3.046 1.35 3.046.83 0 1.762-1.075 2.437-2.61-.182 1.074-.363 2.175-.57 3.2-1.764 1.765-3.372 3.3-3.372 5.25 0 1.15.648 1.814 1.556 1.814 2.153 0 2.542-4.25 3.14-7.526 1.45-1.485 3.06-3.38 4.15-6.17.025-.153-.34-.256-.52-.256zm-7.444 12.137c0-1.588 1.038-2.868 2.31-4.174l-.676 3.738c-.155.896-.466 1.433-.96 1.433-.362 0-.674-.307-.674-.996z" id="Path" fill="#313120"/><path d="M142.947 21.06c-1.297 0-1.79-1.357-1.79-3.072 0-.486.052-.973.13-1.485 1.97-.358 4.33-2.662 4.33-4.685 0-.92-.49-1.587-1.477-1.587-2.49 0-4.305 4.38-4.305 7.863 0 2.276.778 4.17 2.775 4.17 2.386 0 3.916-3.737 4.772-6.093 0-.076-.337-.256-.467-.256-.908 2.38-2.282 5.146-3.968 5.146zm1.063-10.138c.338 0 .52.308.52.922 0 1.203-.986 2.995-3.165 3.994.44-2.38 1.53-4.916 2.645-4.916zM160.946 8.644c-.18-.512-.26-.998-.26-1.46 0-1.663 1.194-2.815 3.398-2.815-.96 5.528-2.178 11.493-3.293 17.714h1.4c1.324-6.605 2.206-11.57 3.113-16.845.052-.257.106-.487.132-.743.413.05.854.102 1.295.102 1.014 0 2.103-.23 2.775-1.255l-1.063-.615c-.467.743-1.217 1.076-2.257 1.076-.882 0-1.867-.23-2.723-.23-2.93 0-4.098 1.945-4.098 3.916 0 .563.078 1.1.234 1.587.44-.154.88-.308 1.348-.436zM184.08 20.37c0-1.332 1.22-3.406 1.22-5.298 0-1.718-1.193-2.793-1.842-3.79l.158-.513c.23-1.128.44-2.228.465-3.585l-1.218-.333c-.286 1.05-.467 2.1-.467 3.02 0 .67.078 1.178.26 1.562-.286 1.536-.7 3.15-1.168 4.48 0 .18.467.256.467.256.39-1.05.804-2.406 1.14-3.737.364.845.91 1.638.91 2.867 0 1.613-1.22 3.482-1.22 5.222 0 1.05.415 1.69 1.377 1.69 1.658 0 2.54-2.51 3.915-6.042 0-.128-.363-.256-.467-.256-1.295 3.328-2.282 5.172-3.01 5.172-.31 0-.517-.23-.517-.717z" id="Path" fill="#313120"/><path d="M166.522 22.084c.158-.97.286-1.943.415-2.893 1.038-4.428 3.035-7.807 3.97-7.807.286 0 .468.23.468.847 0 1.636-1.844 5.656-1.844 8.036 0 1.28.623 1.946 1.48 1.946 1.428-.026 2.722-2.534 3.734-5.146l.337-.87c0-.05-.308-.282-.464-.282-1.143 2.944-2.284 5.2-3.06 5.2-.363 0-.627-.336-.627-1.078 0-2.1 1.817-5.94 1.817-8.09 0-1.075-.57-1.612-1.245-1.612-1.398 0-2.88 2.483-3.864 4.71l.39-1.638c1.66-3.328 3.865-7.706 3.865-10.292 0-.82-.39-1.228-1.063-1.228-.6 0-1.35.307-1.792 1.254-1.374 2.867-2.54 11.085-3.475 16.282-.208.92-.363 2.05-.363 2.534 0 .05.028.102.028.128h1.294zm4.565-18.74c-.158 1.972-2.05 6.682-2.905 8.602.856-4.582 1.74-9.19 2.568-9.19.207 0 .337.18.337.59z" id="Path" fill="#313120"/><path d="M188.723 17.988c0-.486.052-.973.13-1.485 1.973-.358 4.33-2.662 4.33-4.685 0-.92-.492-1.587-1.475-1.587-2.492 0-4.305 4.38-4.305 7.863 0 2.276.776 4.17 2.773 4.17 2.386 0 3.916-3.737 4.774-6.093 0-.076-.337-.256-.47-.256-.907 2.38-2.28 5.146-3.967 5.146-1.297 0-1.79-1.357-1.79-3.072zm2.853-7.066c.337 0 .52.308.52.922 0 1.203-.987 2.995-3.165 3.994.444-2.38 1.533-4.916 2.646-4.916z" fill="#313120"/><text font-family="Franchise" font-size="70" font-weight="bold" letter-spacing="3.111" fill="#313120"><tspan x="44.524" y="115">I’m Ashlyn</tspan></text><text font-family="Franchise" font-size="40" font-weight="bold" letter-spacing="2.075" fill="#313120"><tspan x="45.457" y="199.5">Product Designer</tspan></text><path d="M46.5 145.5h240" stroke="#313120" stroke-width="3" stroke-linecap="square"/></g></svg>