<svg width="339" height="252" viewBox="0 0 339 252" xmlns="http://www.w3.org/2000/svg"><title>Artboard 1</title><defs><path id="a" d="M0 .886h64.79v27.98H0V.887z"/></defs><g fill="none" fill-rule="evenodd"><path d="M237.906 12H334v234H4V12h88.125" stroke="#313120" stroke-width="4"/><path d="M175.73 17.988c0-.486.05-.973.13-1.485 1.972-.358 4.333-2.662 4.333-4.685 0-.92-.495-1.587-1.48-1.587-2.49 0-4.304 4.38-4.304 7.863 0 2.276.775 4.17 2.772 4.17 2.386 0 3.918-3.737 4.772-6.093 0-.076-.335-.256-.467-.256-.908 2.38-2.282 5.146-3.968 5.146-1.296 0-1.79-1.357-1.79-3.072zm2.855-7.066c.337 0 .518.308.518.922 0 1.203-.987 2.995-3.166 3.994.44-2.38 1.532-4.916 2.648-4.916zM139.005 3.652c-.467 2.79-1.038 5.683-1.608 8.704h-3.994c.57-2.995 1.063-5.81 1.556-8.704h-1.402c-.492 2.79-1.037 5.683-1.608 8.704h-1.4l-.156.82h1.4c-.544 2.918-1.114 5.913-1.633 8.908h1.375c.623-3.123 1.168-6.042 1.712-8.91h3.994c-.543 2.92-1.114 5.915-1.66 8.91h1.402c1.426-7.142 2.412-12.672 3.397-18.432h-1.375zM154.67 15.914c-.908 2.304-2.18 3.968-3.45 5.35.804-4.428 1.764-9.727 2.075-10.854h-1.348c-.234 1.024-.545 2.765-.882 4.662-.65 3.044-1.842 6.04-2.775 6.04-.337 0-.57-.308-.57-1.127 0-2.663 1.426-8.167 1.685-9.575h-1.375c-.18.973-1.4 5.684-1.53 8.756 0 1.817.26 3.046 1.35 3.046.83 0 1.762-1.075 2.437-2.61-.182 1.074-.363 2.175-.57 3.2-1.764 1.765-3.372 3.3-3.372 5.25 0 1.15.648 1.814 1.556 1.814 2.153 0 2.542-4.25 3.14-7.526 1.45-1.485 3.06-3.38 4.15-6.17.025-.153-.34-.256-.52-.256zm-7.444 12.137c0-1.588 1.038-2.868 2.31-4.174l-.676 3.738c-.155.896-.466 1.433-.96 1.433-.362 0-.674-.307-.674-.996z" fill="#313120"/><path d="M142.947 21.06c-1.297 0-1.79-1.357-1.79-3.072 0-.486.052-.973.13-1.485 1.97-.358 4.33-2.662 4.33-4.685 0-.92-.49-1.587-1.477-1.587-2.49 0-4.305 4.38-4.305 7.863 0 2.276.778 4.17 2.775 4.17 2.386 0 3.916-3.737 4.772-6.093 0-.076-.337-.256-.467-.256-.908 2.38-2.282 5.146-3.968 5.146zm1.063-10.138c.338 0 .52.308.52.922 0 1.203-.986 2.995-3.165 3.994.44-2.38 1.53-4.916 2.645-4.916zM160.946 8.644c-.18-.512-.26-.998-.26-1.46 0-1.663 1.194-2.815 3.398-2.815-.96 5.528-2.178 11.493-3.293 17.714h1.4c1.324-6.605 2.206-11.57 3.113-16.845.052-.257.106-.487.132-.743.413.05.854.102 1.295.102 1.014 0 2.103-.23 2.775-1.255l-1.063-.615c-.467.743-1.217 1.076-2.257 1.076-.882 0-1.867-.23-2.723-.23-2.93 0-4.098 1.945-4.098 3.916 0 .563.078 1.1.234 1.587.44-.154.88-.308 1.348-.436zM184.08 20.37c0-1.332 1.22-3.406 1.22-5.298 0-1.718-1.193-2.793-1.842-3.79l.158-.513c.23-1.128.44-2.228.465-3.585l-1.218-.333c-.286 1.05-.467 2.1-.467 3.02 0 .67.078 1.178.26 1.562-.286 1.536-.7 3.15-1.168 4.48 0 .18.467.256.467.256.39-1.05.804-2.406 1.14-3.737.364.845.91 1.638.91 2.867 0 1.613-1.22 3.482-1.22 5.222 0 1.05.415 1.69 1.377 1.69 1.658 0 2.54-2.51 3.915-6.042 0-.128-.363-.256-.467-.256-1.295 3.328-2.282 5.172-3.01 5.172-.31 0-.517-.23-.517-.717z" fill="#313120"/><path d="M166.522 22.084c.158-.97.286-1.943.415-2.893 1.038-4.428 3.035-7.807 3.97-7.807.286 0 .468.23.468.847 0 1.636-1.844 5.656-1.844 8.036 0 1.28.623 1.946 1.48 1.946 1.428-.026 2.722-2.534 3.734-5.146l.337-.87c0-.05-.308-.282-.464-.282-1.143 2.944-2.284 5.2-3.06 5.2-.363 0-.627-.336-.627-1.078 0-2.1 1.817-5.94 1.817-8.09 0-1.075-.57-1.612-1.245-1.612-1.398 0-2.88 2.483-3.864 4.71l.39-1.638c1.66-3.328 3.865-7.706 3.865-10.292 0-.82-.39-1.228-1.063-1.228-.6 0-1.35.307-1.792 1.254-1.374 2.867-2.54 11.085-3.475 16.282-.208.92-.363 2.05-.363 2.534 0 .05.028.102.028.128h1.294zm4.565-18.74c-.158 1.972-2.05 6.682-2.905 8.602.856-4.582 1.74-9.19 2.568-9.19.207 0 .337.18.337.59zM188.723 17.988c0-.486.052-.973.13-1.485 1.973-.358 4.33-2.662 4.33-4.685 0-.92-.492-1.587-1.475-1.587-2.492 0-4.305 4.38-4.305 7.863 0 2.276.776 4.17 2.773 4.17 2.386 0 3.916-3.737 4.774-6.093 0-.076-.337-.256-.47-.256-.907 2.38-2.28 5.146-3.967 5.146-1.297 0-1.79-1.357-1.79-3.072zm2.853-7.066c.337 0 .52.308.52.922 0 1.203-.987 2.995-3.165 3.994.444-2.38 1.533-4.916 2.646-4.916z" fill="#313120"/><path d="M46.5 145.5h240" stroke="#313120" stroke-width="3" stroke-linecap="square"/><path d="M55.864 114.02c0 .653-.326.98-.98.98h-6.23c-.653 0-.98-.327-.98-.98V66.98c0-.653.327-.98.98-.98h6.23c.654 0 .98.327.98.98v47.04zm8.572-34.3v-1.05c0-.047.023-.117.07-.21.14-.14.256-.21.35-.21.42 0 .99-.198 1.715-.595.724-.397 1.202-1.248 1.436-2.555.046-.187.058-.408.035-.665-.023-.257-.104-.432-.244-.525-.094-.093-.27-.105-.525-.035-.256.07-.454.105-.594.105-.794 0-1.435-.105-1.925-.315-.49-.21-.944-.502-1.364-.875-.84-.747-1.26-1.82-1.26-3.22 0-1.027.373-1.937 1.12-2.73.84-.887 1.913-1.33 3.22-1.33 1.4 0 2.543.467 3.43 1.4.886.933 1.423 2.077 1.61 3.43.093.467.15.933.175 1.4.024.467-.01.933-.104 1.4-.187 1.26-.572 2.403-1.155 3.43-.583 1.027-1.41 1.89-2.484 2.59-.28.187-.572.362-.875.525-.303.163-.618.292-.944.385-.047 0-.187.023-.42.07l-.7.14c-.094 0-.187-.023-.28-.07-.187-.093-.28-.257-.28-.49zm39.86-6.72c.654 0 .98.327.98.98v40.04c0 .653-.326.98-.98.98h-6.72c-.653 0-.98-.327-.98-.98V95.4l-4.62 16.66c-.093.233-.21.35-.35.35-.14 0-.256-.117-.35-.35l-4.62-16.66v18.62c0 .653-.326.98-.98.98h-6.72c-.653 0-.98-.327-.98-.98V73.98c0-.653.327-.98.98-.98h5.95c.28 0 .526.105.736.315.21.21.36.432.455.665l5.53 21.56 5.53-21.56c.093-.233.245-.455.455-.665.21-.21.455-.315.735-.315h5.95zm43.043 41.02c.092.653-.188.98-.84.98h-6.37c-.608 0-.958-.327-1.05-.98l-.56-7.56h-4.34l-.56 7.56c-.094.653-.444.98-1.05.98h-6.37c-.654 0-.934-.327-.84-.98l5.25-47.04c.092-.653.466-.98 1.12-.98h9.24c.652 0 1.026.327 1.12.98l5.25 47.04zm-9.38-15.4l-1.33-18.97h-.56l-1.33 18.97h3.22zm27.54-26.11c1.213 0 2.357.233 3.43.7 1.073.467 2.007 1.097 2.8 1.89.793.793 1.423 1.727 1.89 2.8.467 1.073.7 2.217.7 3.43v2.66c0 .653-.303 1.073-.91 1.26l-6.37 1.68c-.607.187-.91-.047-.91-.7v-4.55c0-.467-.163-.863-.49-1.19-.327-.327-.723-.49-1.19-.49h-.56c-.467 0-.863.163-1.19.49-.327.327-.49.723-.49 1.19v4.27c.047.513.14.957.28 1.33.14.373.397.747.77 1.12l9.17 6.86c.747.653 1.225 1.318 1.435 1.995.21.677.362 1.435.455 2.275v7.14c0 1.213-.233 2.357-.7 3.43-.467 1.073-1.097 2.007-1.89 2.8-.793.793-1.727 1.423-2.8 1.89-1.073.467-2.217.7-3.43.7h-2.66c-1.213 0-2.357-.233-3.43-.7-1.073-.467-2.007-1.097-2.8-1.89-.793-.793-1.423-1.727-1.89-2.8-.467-1.073-.7-2.217-.7-3.43v-3.92c0-.653.303-1.073.91-1.26l6.37-1.68c.607-.187.91.047.91.7v5.81c0 .467.163.863.49 1.19.327.327.723.49 1.19.49h.56c.467 0 .863-.163 1.19-.49.327-.327.49-.723.49-1.19v-4.34c-.047-.607-.14-1.143-.28-1.61-.14-.467-.42-.887-.84-1.26l-9.03-6.93c-.7-.653-1.202-1.307-1.505-1.96-.303-.653-.455-1.517-.455-2.59v-6.3c0-1.213.233-2.357.7-3.43.467-1.073 1.097-2.007 1.89-2.8.793-.793 1.727-1.423 2.8-1.89 1.073-.467 2.217-.7 3.43-.7h2.66zm37.2.49c.654 0 .98.327.98.98v40.04c0 .653-.326.98-.98.98h-6.23c-.652 0-.98-.327-.98-.98V98.2h-4.62v15.82c0 .653-.326.98-.98.98h-6.23c-.652 0-.98-.327-.98-.98V73.98c0-.653.328-.98.98-.98h6.23c.654 0 .98.327.98.98v16.03h4.62V73.98c0-.653.328-.98.98-.98h6.23zm27.612 33.81c.654 0 .98.327.98.98v6.23c0 .653-.326.98-.98.98h-15.89c-.653 0-.98-.327-.98-.98V73.98c0-.653.327-.98.98-.98h6.23c.654 0 .98.327.98.98v32.83h8.68zM257.082 73c.28 0 .49.105.63.315.14.21.165.432.07.665l-8.05 24.78v15.26c0 .653-.325.98-.98.98h-6.3c-.652 0-.98-.327-.98-.98V98.76l-8.05-24.78c-.092-.233-.07-.455.07-.665.14-.21.35-.315.63-.315h7.42c.655 0 1.028.327 1.12.98l2.8 13.44h.28l2.8-13.44c.095-.653.468-.98 1.12-.98h7.42zm29.152 0c.654 0 .98.327.98.98v40.04c0 .653-.326.98-.98.98h-4.48c-.28 0-.548-.093-.805-.28-.257-.187-.432-.397-.526-.63l-7.42-18.27v18.2c0 .653-.326.98-.98.98h-6.23c-.653 0-.98-.327-.98-.98V73.98c0-.653.327-.98.98-.98h4.62c.28 0 .55.093.805.28.256.187.43.397.524.63l7.28 20.37v-20.3c0-.653.327-.98.98-.98h6.23zM53.817 171.5c.693 0 1.346.133 1.96.4.613.267 1.146.627 1.6 1.08.453.453.813.987 1.08 1.6.266.613.4 1.267.4 1.96v6.52c0 .693-.134 1.347-.4 1.96-.267.613-.627 1.147-1.08 1.6-.454.453-.987.813-1.6 1.08-.614.267-1.267.4-1.96.4h-1.88v10.84c0 .373-.187.56-.56.56h-3.56c-.374 0-.56-.187-.56-.56v-26.88c0-.373.186-.56.56-.56h6zm.36 5.24c0-.267-.094-.493-.28-.68-.187-.187-.414-.28-.68-.28h-1.28v8.04h1.28c.266 0 .493-.093.68-.28.186-.187.28-.413.28-.68v-6.12zm14.035 22.2c0 .373-.2.56-.6.56h-3.56c-.346 0-.52-.187-.52-.56v-22.88c0-.373.187-.56.56-.56h6c.694 0 1.347.133 1.96.4.614.267 1.147.627 1.6 1.08.454.453.814.987 1.08 1.6.267.613.4 1.267.4 1.96v4.92c0 .987-.293 1.873-.88 2.66-.587.787-1.293 1.393-2.12 1.82l3.8 9c.08.373-.053.56-.4.56h-3.64c-.16 0-.313-.053-.46-.16-.146-.107-.246-.24-.3-.4l-2.92-7.4v7.4zm0-12.72h1.28c.267 0 .494-.093.68-.28.187-.187.28-.413.28-.68v-4.52c0-.267-.093-.493-.28-.68-.186-.187-.413-.28-.68-.28h-1.28v6.44zm23.636 8.52c0 .693-.134 1.347-.4 1.96-.267.613-.627 1.147-1.08 1.6-.454.453-.987.813-1.6 1.08-.614.267-1.267.4-1.96.4h-1.52c-.694 0-1.347-.133-1.96-.4-.614-.267-1.147-.627-1.6-1.08-.454-.453-.814-.987-1.08-1.6-.267-.613-.4-1.267-.4-1.96v-14.48c0-.693.133-1.347.4-1.96.266-.613.626-1.147 1.08-1.6.453-.453.986-.813 1.6-1.08.613-.267 1.266-.4 1.96-.4h1.52c.693 0 1.346.133 1.96.4.613.267 1.146.627 1.6 1.08.453.453.813.987 1.08 1.6.266.613.4 1.267.4 1.96v14.48zm-4.68-14.28c0-.267-.094-.493-.28-.68-.187-.187-.414-.28-.68-.28h-.32c-.267 0-.494.093-.68.28-.187.187-.28.413-.28.68v14.08c0 .267.093.493.28.68.186.187.413.28.68.28h.32c.266 0 .493-.093.68-.28.186-.187.28-.413.28-.68v-14.08zm16.515-4.96c.693 0 1.347.133 1.96.4s1.147.627 1.6 1.08c.453.453.813.987 1.08 1.6.267.613.4 1.267.4 1.96v13.92c0 .693-.133 1.347-.4 1.96s-.627 1.147-1.08 1.6c-.453.453-.987.813-1.6 1.08-.613.267-1.267.4-1.96.4h-6c-.373 0-.56-.187-.56-.56v-22.88c0-.373.187-.56.56-.56h6zm.36 5.24c0-.267-.093-.493-.28-.68-.187-.187-.413-.28-.68-.28h-1.28v15.44h1.28c.267 0 .493-.093.68-.28.187-.187.28-.413.28-.68v-13.52zm20.595-5.24c.374 0 .56.187.56.56v18.68c0 .693-.133 1.347-.4 1.96-.266.613-.626 1.147-1.08 1.6-.453.453-.986.813-1.6 1.08-.613.267-1.266.4-1.96.4h-1.52c-.693 0-1.346-.133-1.96-.4-.613-.267-1.146-.627-1.6-1.08-.453-.453-.813-.987-1.08-1.6-.266-.613-.4-1.267-.4-1.96v-18.68c0-.373.187-.56.56-.56h3.56c.374 0 .56.187.56.56v18.48c0 .267.094.493.28.68.187.187.414.28.68.28h.32c.267 0 .494-.093.68-.28.187-.187.28-.413.28-.68v-18.48c0-.373.187-.56.56-.56h3.56zm11.996-.28c.693 0 1.346.133 1.96.4.613.267 1.146.627 1.6 1.08.453.453.813.987 1.08 1.6.266.613.4 1.267.4 1.96v2.4c0 .373-.174.613-.52.72l-3.64.56c-.347.107-.52-.027-.52-.4v-3.08c0-.267-.094-.493-.28-.68-.187-.187-.414-.28-.68-.28h-.32c-.267 0-.494.093-.68.28-.187.187-.28.413-.28.68v14.08c0 .267.093.493.28.68.186.187.413.28.68.28h.32c.266 0 .493-.093.68-.28.186-.187.28-.413.28-.68v-4.8c0-.373.173-.507.52-.4l3.64.48c.346.107.52.347.52.72v4.2c0 .693-.134 1.347-.4 1.96-.267.613-.627 1.147-1.08 1.6-.454.453-.987.813-1.6 1.08-.614.267-1.267.4-1.96.4h-1.52c-.694 0-1.347-.133-1.96-.4-.614-.267-1.147-.627-1.6-1.08-.454-.453-.814-.987-1.08-1.6-.267-.613-.4-1.267-.4-1.96v-14.48c0-.693.133-1.347.4-1.96.266-.613.626-1.147 1.08-1.6.453-.453.986-.813 1.6-1.08.613-.267 1.266-.4 1.96-.4h1.52zm19.395.28c.373 0 .56.187.56.56v3.56c0 .373-.187.56-.56.56h-2.84v18.76c0 .373-.187.56-.56.56h-3.56c-.134 0-.26-.053-.38-.16-.12-.107-.18-.24-.18-.4v-18.76h-2.8c-.374 0-.56-.187-.56-.56v-3.56c0-.373.186-.56.56-.56h10.32zm19.35-4c.693 0 1.347.133 1.96.4s1.147.627 1.6 1.08c.453.453.813.987 1.08 1.6.267.613.4 1.267.4 1.96v17.92c0 .693-.133 1.347-.4 1.96s-.627 1.147-1.08 1.6c-.453.453-.987.813-1.6 1.08-.613.267-1.267.4-1.96.4h-6c-.373 0-.56-.187-.56-.56v-26.88c0-.373.187-.56.56-.56h6zm.36 5.24c0-.267-.093-.493-.28-.68-.187-.187-.413-.28-.68-.28h-1.28v19.44h1.28c.267 0 .493-.093.68-.28.187-.187.28-.413.28-.68v-17.52zm19.195 18.08c.374 0 .56.187.56.56v3.56c0 .373-.186.56-.56.56h-8.68c-.373 0-.56-.187-.56-.56v-22.88c0-.373.187-.56.56-.56h8.68c.374 0 .56.187.56.56v3.56c0 .373-.186.56-.56.56h-4.56v4.56h3.96c.374 0 .56.187.56.56v3.56c0 .373-.186.56-.56.56h-3.96v5.4h4.56zm11.596-19.6c.694 0 1.347.133 1.96.4.614.267 1.147.627 1.6 1.08.454.453.814.987 1.08 1.6.267.613.4 1.267.4 1.96v1.52c0 .373-.173.613-.52.72l-3.64.96c-.346.107-.52-.027-.52-.4v-2.6c0-.267-.093-.493-.28-.68-.186-.187-.413-.28-.68-.28h-.32c-.266 0-.493.093-.68.28-.186.187-.28.413-.28.68v2.44c.027.293.08.547.16.76.08.213.227.427.44.64l5.24 3.92c.427.373.7.753.82 1.14.12.387.207.82.26 1.3v4.08c0 .693-.133 1.347-.4 1.96-.266.613-.626 1.147-1.08 1.6-.453.453-.986.813-1.6 1.08-.613.267-1.266.4-1.96.4h-1.52c-.693 0-1.346-.133-1.96-.4-.613-.267-1.146-.627-1.6-1.08-.453-.453-.813-.987-1.08-1.6-.266-.613-.4-1.267-.4-1.96v-2.24c0-.373.174-.613.52-.72l3.64-.96c.347-.107.52.027.52.4v3.32c0 .267.094.493.28.68.187.187.414.28.68.28h.32c.267 0 .494-.093.68-.28.187-.187.28-.413.28-.68v-2.48c-.026-.347-.08-.653-.16-.92s-.24-.507-.48-.72l-5.16-3.96c-.4-.373-.686-.747-.86-1.12-.173-.373-.26-.867-.26-1.48v-3.6c0-.693.134-1.347.4-1.96.267-.613.627-1.147 1.08-1.6.454-.453.987-.813 1.6-1.08.614-.267 1.267-.4 1.96-.4h1.52zm14.796 23.72c0 .373-.186.56-.56.56h-3.56c-.373 0-.56-.187-.56-.56v-22.88c0-.373.187-.56.56-.56h3.56c.374 0 .56.187.56.56v22.88zm11.836-23.72c.693 0 1.346.133 1.96.4.613.267 1.146.627 1.6 1.08.453.453.813.987 1.08 1.6.266.613.4 1.267.4 1.96v.88c0 .373-.174.613-.52.72l-3.64 1.32c-.347.107-.52-.027-.52-.4v-2.32c0-.267-.094-.493-.28-.68-.187-.187-.414-.28-.68-.28h-.32c-.267 0-.494.093-.68.28-.187.187-.28.413-.28.68v14.08c0 .267.093.493.28.68.186.187.413.28.68.28h.32c.266 0 .493-.093.68-.28.186-.187.28-.413.28-.68v-4.32h-1.12v-4.56h5.24c.373 0 .56.187.56.56v8.52c0 .693-.134 1.347-.4 1.96-.267.613-.627 1.147-1.08 1.6-.454.453-.987.813-1.6 1.08-.614.267-1.267.4-1.96.4h-1.52c-.694 0-1.347-.133-1.96-.4-.614-.267-1.147-.627-1.6-1.08-.454-.453-.814-.987-1.08-1.6-.267-.613-.4-1.267-.4-1.96v-14.48c0-.693.133-1.347.4-1.96.266-.613.626-1.147 1.08-1.6.453-.453.986-.813 1.6-1.08.613-.267 1.266-.4 1.96-.4h1.52zm22.555.28c.373 0 .56.187.56.56v22.88c0 .373-.187.56-.56.56h-2.56c-.16 0-.313-.053-.46-.16-.147-.107-.247-.227-.3-.36l-4.24-10.44v10.4c0 .373-.187.56-.56.56h-3.56c-.373 0-.56-.187-.56-.56v-22.88c0-.373.187-.56.56-.56h2.64c.16 0 .313.053.46.16.147.107.247.227.3.36l4.16 11.64v-11.6c0-.373.187-.56.56-.56h3.56zm15.475 19.32c.374 0 .56.187.56.56v3.56c0 .373-.186.56-.56.56h-8.68c-.373 0-.56-.187-.56-.56v-22.88c0-.373.187-.56.56-.56h8.68c.374 0 .56.187.56.56v3.56c0 .373-.186.56-.56.56h-4.56v4.56h3.96c.374 0 .56.187.56.56v3.56c0 .373-.186.56-.56.56h-3.96v5.4h4.56zm10.716 4.12c0 .373-.2.56-.6.56h-3.56c-.347 0-.52-.187-.52-.56v-22.88c0-.373.186-.56.56-.56h6c.693 0 1.346.133 1.96.4.613.267 1.146.627 1.6 1.08.453.453.813.987 1.08 1.6.266.613.4 1.267.4 1.96v4.92c0 .987-.293 1.873-.88 2.66-.587.787-1.293 1.393-2.12 1.82l3.8 9c.08.373-.054.56-.4.56h-3.64c-.16 0-.314-.053-.46-.16-.147-.107-.247-.24-.3-.4l-2.92-7.4v7.4zm0-12.72h1.28c.266 0 .493-.093.68-.28.186-.187.28-.413.28-.68v-4.52c0-.267-.094-.493-.28-.68-.187-.187-.414-.28-.68-.28h-1.28v6.44z" fill="#313120"/></g></svg>