<?xml version="1.0" encoding="UTF-8" standalone="no"?>
<svg width="11px" height="18px" viewBox="0 0 11 18" version="1.1" xmlns="http://www.w3.org/2000/svg" xmlns:xlink="http://www.w3.org/1999/xlink" xmlns:sketch="http://www.bohemiancoding.com/sketch/ns">
    <!-- Generator: Sketch 3.3.1 (12002) - http://www.bohemiancoding.com/sketch -->
    <title></title>
    <desc>Created with Sketch.</desc>
    <defs></defs>
    <g id="Page-1" stroke="none" stroke-width="1" fill="none" fill-rule="evenodd" sketch:type="MSPage">
        <g id="Desktop-Copy-2" sketch:type="MSArtboardGroup" transform="translate(-490.000000, -1486.000000)" fill="#69884F">
            <g id="-+--+-" sketch:type="MSLayerGroup" transform="translate(428.000000, 1485.000000)">
                <path d="M65.638398,1.28569555 C65.5267908,2.16739303 65.3258977,2.89284033 65.0357188,3.47319816 C64.7455398,4.04239527 64.3660751,4.53346728 63.8861638,4.9464142 C63.4062525,5.3482004 62.8258947,5.66070077 62.156251,5.88391532 L62.156251,8.30579321 L64.0535747,8.30579321 L64.0535747,14.3214254 C64.0535747,15.1026763 64.1316998,15.7053556 64.2991107,16.1183025 C64.4553609,16.5312494 64.7567006,16.9218749 65.1808082,17.2901789 C65.6049159,17.6473222 66.1183093,17.9375011 66.7209886,18.1272335 C67.3236679,18.3281266 68.015633,18.4285731 68.796884,18.4285731 C69.4888491,18.4285731 70.1361713,18.3616088 70.7276898,18.2165193 C71.3192084,18.0825906 71.9776913,17.8370546 72.7142993,17.491072 L72.7142993,14.7901759 C71.8549233,15.359373 70.9955473,15.6383912 70.1250105,15.6383912 C69.6339385,15.6383912 69.1986701,15.526784 68.8192054,15.2924087 C68.5401872,15.1249978 68.3392941,14.9017832 68.2388476,14.622765 C68.1272403,14.3325861 68.0825974,13.6964246 68.0825974,12.7031199 L68.0825974,8.30579321 L72.1451022,8.30579321 L72.1451022,5.61605786 L68.0825974,5.61605786 L68.0825974,1.28569555 L65.638398,1.28569555 Z" id="" sketch:type="MSShapeGroup"></path>
            </g>
        </g>
    </g>
</svg>