<?xml version="1.0" encoding="UTF-8" standalone="no"?>
<svg width="11px" height="18px" viewBox="0 0 11 18" version="1.1" xmlns="http://www.w3.org/2000/svg" xmlns:xlink="http://www.w3.org/1999/xlink" xmlns:sketch="http://www.bohemiancoding.com/sketch/ns">
    <!-- Generator: Sketch 3.3.1 (12002) - http://www.bohemiancoding.com/sketch -->
    <title></title>
    <desc>Created with Sketch.</desc>
    <defs></defs>
    <g id="Page-1" stroke="none" stroke-width="1" fill="none" fill-rule="evenodd" sketch:type="MSPage">
        <g id="Desktop-Copy-3" sketch:type="MSArtboardGroup" transform="translate(-490.000000, -1486.000000)" fill="#745486">
            <g id="-+--+-" sketch:type="MSLayerGroup" transform="translate(385.000000, 1486.000000)">
                <path d="M108.638398,0.285695553 C108.526791,1.16739303 108.325898,1.89284033 108.035719,2.47319816 C107.74554,3.04239527 107.366075,3.53346728 106.886164,3.9464142 C106.406253,4.3482004 105.825895,4.66070077 105.156251,4.88391532 L105.156251,7.30579321 L107.053575,7.30579321 L107.053575,13.3214254 C107.053575,14.1026763 107.1317,14.7053556 107.299111,15.1183025 C107.455361,15.5312494 107.756701,15.9218749 108.180808,16.2901789 C108.604916,16.6473222 109.118309,16.9375011 109.720989,17.1272335 C110.323668,17.3281266 111.015633,17.4285731 111.796884,17.4285731 C112.488849,17.4285731 113.136171,17.3616088 113.72769,17.2165193 C114.319208,17.0825906 114.977691,16.8370546 115.714299,16.491072 L115.714299,13.7901759 C114.854923,14.359373 113.995547,14.6383912 113.125011,14.6383912 C112.633939,14.6383912 112.19867,14.526784 111.819205,14.2924087 C111.540187,14.1249978 111.339294,13.9017832 111.238848,13.622765 C111.12724,13.3325861 111.082597,12.6964246 111.082597,11.7031199 L111.082597,7.30579321 L115.145102,7.30579321 L115.145102,4.61605786 L111.082597,4.61605786 L111.082597,0.285695553 L108.638398,0.285695553 Z" id="" sketch:type="MSShapeGroup"></path>
            </g>
        </g>
    </g>
</svg>