<?xml version="1.0" encoding="UTF-8" standalone="no"?>
<svg width="18px" height="17px" viewBox="0 0 18 17" version="1.1" xmlns="http://www.w3.org/2000/svg" xmlns:xlink="http://www.w3.org/1999/xlink" xmlns:sketch="http://www.bohemiancoding.com/sketch/ns">
    <!-- Generator: Sketch 3.3.1 (12002) - http://www.bohemiancoding.com/sketch -->
    <title></title>
    <desc>Created with Sketch.</desc>
    <defs></defs>
    <g id="Page-1" stroke="none" stroke-width="1" fill="none" fill-rule="evenodd" sketch:type="MSPage">
        <g id="Desktop-Copy-2" sketch:type="MSArtboardGroup" transform="translate(-540.000000, -1486.000000)" fill="#69884F">
            <g id="-+--+-" sketch:type="MSLayerGroup" transform="translate(428.000000, 1485.000000)">
                <path d="M116.323665,6.83257717 L112.640625,6.83257717 L112.640625,17.8928582 L116.323665,17.8928582 L116.323665,6.83257717 Z M116.558041,3.41739452 C116.54688,2.33480395 115.765629,1.5089101 114.504467,1.5089101 C113.254465,1.5089101 112.428571,2.33480395 112.428571,3.41739452 C112.428571,4.47766364 113.220983,5.32587894 114.459824,5.32587894 L114.482145,5.32587894 C115.765629,5.32587894 116.569201,4.47766364 116.558041,3.41739452 L116.558041,3.41739452 Z M129.571449,11.5535649 C129.571449,8.16070375 127.763411,6.57588043 125.341533,6.57588043 C123.354924,6.57588043 122.484387,7.68079246 122.004476,8.43972194 L122.026797,8.43972194 L122.026797,6.83257717 L118.354918,6.83257717 C118.354918,6.83257717 118.399561,7.87052483 118.354918,17.8928582 L122.026797,17.8928582 L122.026797,11.7209758 C122.026797,11.386154 122.060279,11.0624929 122.149565,10.8169569 C122.417423,10.158474 123.020102,9.4776696 124.035728,9.4776696 C125.363855,9.4776696 125.89957,10.4932958 125.89957,11.9776726 L125.89957,17.8928582 L129.571449,17.8928582 L129.571449,11.5535649 Z" id="" sketch:type="MSShapeGroup"></path>
            </g>
        </g>
    </g>
</svg>