<?xml version="1.0" encoding="UTF-8" standalone="no"?>
<svg width="18px" height="17px" viewBox="0 0 18 17" version="1.1" xmlns="http://www.w3.org/2000/svg" xmlns:xlink="http://www.w3.org/1999/xlink" xmlns:sketch="http://www.bohemiancoding.com/sketch/ns">
    <!-- Generator: Sketch 3.3.1 (12002) - http://www.bohemiancoding.com/sketch -->
    <title></title>
    <desc>Created with Sketch.</desc>
    <defs></defs>
    <g id="Page-1" stroke="none" stroke-width="1" fill="none" fill-rule="evenodd" sketch:type="MSPage">
        <g id="Desktop-Copy-3" sketch:type="MSArtboardGroup" transform="translate(-385.000000, -1486.000000)" fill="#745486">
            <g id="-+--+-" sketch:type="MSLayerGroup" transform="translate(377.000000, 1485.000000)">
                <path d="M25.1428776,9.85713434 C25.1428776,5.12498584 21.3035873,1.28569555 16.5714388,1.28569555 C11.8392903,1.28569555 8,5.12498584 8,9.85713434 C8,13.640621 10.4553601,16.8549105 13.859382,17.9933048 C14.2946504,18.0714298 14.4509005,17.8035724 14.4509005,17.5803578 C14.4509005,17.3794647 14.4397398,16.6986604 14.4397398,15.9843738 C14.4397398,15.9843738 12.0513441,16.4977673 11.5491114,14.9687476 C11.5491114,14.9687476 11.1584859,13.9754428 10.6004495,13.7187461 C10.6004495,13.7187461 9.8191986,13.1830312 10.6562532,13.1941919 C10.6562532,13.1941919 11.5044685,13.2611563 11.973219,14.0758894 C12.7209878,15.3928552 13.9709893,15.0133905 14.4620613,14.7901759 C14.5401864,14.2321396 14.7634009,13.8638355 15.0089369,13.640621 C13.1004525,13.4285672 11.1026823,12.6919592 11.1026823,9.41070524 C11.1026823,8.47320412 11.4375041,7.70311392 11.9843797,7.11159535 C11.8950939,6.8883808 11.604915,6.01784405 12.0625048,4.83480693 C12.7879521,4.61159237 14.4285791,5.71650441 14.4285791,5.71650441 C15.1093835,5.52677204 15.8459915,5.42632549 16.5714388,5.42632549 C17.2968861,5.42632549 18.0334941,5.52677204 18.7142985,5.71650441 C18.7142985,5.71650441 20.3549254,4.61159237 21.069212,4.83480693 C21.5379626,6.01784405 21.2477836,6.8883808 21.1584978,7.11159535 C21.7053735,7.70311392 22.0401953,8.47320412 22.0401953,9.41070524 C22.0401953,12.7031199 20.0312643,13.4285672 18.1227799,13.640621 C18.4352803,13.9084785 18.7031378,14.4218719 18.7031378,15.2254443 L18.7031378,17.5803578 C18.7031378,17.8035724 18.8482272,18.0714298 19.2834956,17.9933048 C22.6875175,16.8549105 25.1428776,13.640621 25.1428776,9.85713434 L25.1428776,9.85713434 Z" id="" sketch:type="MSShapeGroup"></path>
            </g>
        </g>
    </g>
</svg>