<?xml version="1.0" encoding="UTF-8" standalone="no"?>
<svg width="18px" height="15px" viewBox="0 0 18 15" version="1.1" xmlns="http://www.w3.org/2000/svg" xmlns:xlink="http://www.w3.org/1999/xlink" xmlns:sketch="http://www.bohemiancoding.com/sketch/ns">
    <!-- Generator: Sketch 3.3.1 (12002) - http://www.bohemiancoding.com/sketch -->
    <title></title>
    <desc>Created with Sketch.</desc>
    <defs></defs>
    <g id="Page-1" stroke="none" stroke-width="1" fill="none" fill-rule="evenodd" sketch:type="MSPage">
        <g id="Desktop-Copy-2" sketch:type="MSArtboardGroup" transform="translate(-435.000000, -1487.000000)" fill="#69884F">
            <g id="-+--+-" sketch:type="MSLayerGroup" transform="translate(428.000000, 1485.000000)">
                <path d="M24.7946644,4.41069928 C24.1473422,4.68971747 23.4442164,4.89061056 22.7187691,4.96873566 C23.4665378,4.52230655 24.0357349,3.81918072 24.3035924,2.98212615 C23.6116273,3.39507307 22.8303764,3.69641271 22.0156432,3.8526629 C21.3571603,3.14953706 20.4196592,2.71426868 19.3817115,2.71426868 C17.3839413,2.71426868 15.7767965,4.33257418 15.7767965,6.3191837 C15.7767965,6.59820189 15.8102787,6.87722008 15.8660823,7.14507754 C12.8750073,6.98882735 10.2075935,5.56025422 8.43303776,3.37275161 C8.12053739,3.90846654 7.94196575,4.52230655 7.94196575,5.19195021 C7.94196575,6.4419517 8.57812722,7.54686373 9.54911052,8.19418593 C8.95759196,8.17186448 8.39955558,8.00445356 7.91964429,7.7365961 L7.91964429,7.78123901 C7.91964429,9.53347324 9.15848506,10.9843678 10.8102727,11.3191897 C10.5089331,11.3973147 10.185272,11.4419577 9.86161089,11.4419577 C9.62723562,11.4419577 9.40402106,11.4196362 9.18080651,11.386154 C9.63839634,12.8147272 10.9665229,13.8526748 12.5513462,13.886157 C11.3125055,14.8571403 9.76116435,15.4263374 8.07589448,15.4263374 C7.77455484,15.4263374 7.49553665,15.4151767 7.20535773,15.3816945 C8.80134177,16.4084814 10.6986655,17 12.7410786,17 C19.3705508,17 22.9977873,11.508922 22.9977873,6.74329134 C22.9977873,6.58704116 22.9977873,6.43079097 22.9866265,6.27454079 C23.6897524,5.76114732 24.3035924,5.12498584 24.7946644,4.41069928 L24.7946644,4.41069928 Z" id="" sketch:type="MSShapeGroup"></path>
            </g>
        </g>
    </g>
</svg>