<?xml version="1.0" encoding="UTF-8" standalone="no"?>
<svg width="339px" height="252px" viewBox="0 0 339 252" version="1.1" xmlns="http://www.w3.org/2000/svg" xmlns:xlink="http://www.w3.org/1999/xlink" xmlns:sketch="http://www.bohemiancoding.com/sketch/ns">
    <!-- Generator: Sketch 3.2.2 (9983) - http://www.bohemiancoding.com/sketch -->
    <title>Artboard 1</title>
    <desc>Created with Sketch.</desc>
    <defs>
        <path id="path-1" d="M0,0.885866667 L64.789,0.885866667 L64.789,28.8666667 L0,28.8666667 L0,0.885866667 Z"></path>
    </defs>
    <g id="Page-1" stroke="none" stroke-width="1" fill="none" fill-rule="evenodd" sketch:type="MSPage">
        <g id="Artboard-1" sketch:type="MSArtboardGroup">
            <path d="M237.90625,12 L334,12 L334,246 L4,246 L4,12 L92.125,12" id="Rectangle-1" stroke="#313120" stroke-width="4" sketch:type="MSShapeGroup"></path>
            <g id="Group" sketch:type="MSLayerGroup" transform="translate(130.000000, 1.000000)">
                <g id="Imported-Layers" transform="translate(0.161290, 0.000000)">
                    <mask id="mask-2" sketch:name="Clip 2" fill="white">
                        <use xlink:href="#path-1"></use>
                    </mask>
                    <g id="Clip-2"></g>
                </g>
                <path d="M45.7295032,16.9880533 C45.7295032,16.5016533 45.7813742,16.0152533 45.8613419,15.5032533 C47.8324387,15.1448533 50.1925677,12.8408533 50.1925677,10.8184533 C50.1925677,9.89685333 49.6976323,9.23125333 48.7120839,9.23125333 C46.2244387,9.23125333 44.4089548,13.6088533 44.4089548,17.0925867 C44.4089548,19.3688533 45.1848581,21.2632533 47.1818903,21.2632533 C49.5679548,21.2632533 51.1003097,17.5256533 51.9540194,15.1704533 C51.9540194,15.0936533 51.6190194,14.9144533 51.4871806,14.9144533 C50.5794387,17.2952533 49.2048581,20.0600533 47.5190516,20.0600533 C46.2244387,20.0600533 45.7295032,18.7032533 45.7295032,16.9880533 Z M48.5845677,9.92245333 C48.921729,9.92245333 49.1032774,10.2296533 49.1032774,10.8440533 C49.1032774,12.0472533 48.1155677,13.8392533 45.9369871,14.8376533 C46.3778903,12.4568533 47.4693419,9.92245333 48.5845677,9.92245333 Z" id="Path" fill="#313120" sketch:type="MSShapeGroup"></path>
                <path d="M9.00485806,2.65205333 C8.53801935,5.44245333 7.96743871,8.33525333 7.39685806,11.3560533 L3.40279355,11.3560533 C3.97337419,8.36085333 4.46614839,5.54485333 4.95892258,2.65205333 L3.55840645,2.65205333 C3.06563226,5.44245333 2.5209871,8.33525333 1.95040645,11.3560533 L0.549890323,11.3560533 L0.394277419,12.1752533 L1.79479355,12.1752533 C1.25014839,15.0936533 0.679567742,18.0888533 0.160858065,21.0840533 L1.53543871,21.0840533 C2.15789032,17.9608533 2.70253548,15.0424533 3.24718065,12.1752533 L7.24124516,12.1752533 C6.6966,15.0936533 6.12601935,18.0888533 5.58137419,21.0840533 L6.98189032,21.0840533 C8.40834194,13.9416533 9.39389032,8.41205333 10.3794387,2.65205333 L9.00485806,2.65205333 Z" id="Path" fill="#313120" sketch:type="MSShapeGroup"></path>
                <path d="M24.6698903,14.9144533 C23.7621484,17.2184533 22.4913097,18.8824533 21.220471,20.2648533 C22.024471,15.8360533 22.9840839,10.5368533 23.2953097,9.41045333 L21.9466645,9.41045333 C21.7132452,10.4344533 21.4020194,12.1752533 21.0648581,14.0717867 C20.416471,17.1160533 19.2234387,20.1133867 18.2897613,20.1133867 C17.9526,20.1133867 17.7191806,19.8040533 17.7191806,18.9848533 C17.7191806,16.3224533 19.1456323,10.8184533 19.4049871,9.41045333 L18.0304065,9.41045333 C17.8488581,10.3832533 16.6298903,15.0936533 16.5002129,18.1656533 C16.5002129,19.9832533 16.7595677,21.2120533 17.8488581,21.2120533 C18.6787935,21.2120533 19.612471,20.1368533 20.2867935,18.6029867 C20.1052452,19.6760533 19.9236968,20.7768533 19.7162129,21.8029867 C17.9526,23.5672533 16.3446,25.1032533 16.3446,27.0509867 C16.3446,28.2029867 16.9929871,28.8664533 17.900729,28.8664533 C20.0533742,28.8664533 20.4424065,24.6168533 21.0389226,21.3400533 C22.4913097,19.8552533 24.0993097,17.9608533 25.1886,15.1704533 C25.2145355,15.0168533 24.8514387,14.9144533 24.6698903,14.9144533 Z M17.2264065,27.0509867 C17.2264065,25.4616533 18.2638258,24.1816533 19.5346645,22.8760533 L18.8603419,26.6136533 C18.704729,27.5096533 18.3935032,28.0472533 17.900729,28.0472533 C17.5376323,28.0472533 17.2264065,27.7400533 17.2264065,27.0509867 Z" id="Path" fill="#313120" sketch:type="MSShapeGroup"></path>
                <path d="M12.9470516,20.0600533 C11.6502774,20.0600533 11.1575032,18.7032533 11.1575032,16.9880533 C11.1575032,16.5016533 11.2093742,16.0152533 11.2871806,15.5032533 C13.2582774,15.1448533 15.6184065,12.8408533 15.6184065,10.8184533 C15.6184065,9.89685333 15.1256323,9.23125333 14.1400839,9.23125333 C11.6502774,9.23125333 9.83479355,13.6088533 9.83479355,17.0925867 C9.83479355,19.3688533 10.6128581,21.2632533 12.6098903,21.2632533 C14.9959548,21.2632533 16.5261484,17.5256533 17.3820194,15.1704533 C17.3820194,15.0936533 17.0448581,14.9144533 16.9151806,14.9144533 C16.0074387,17.2952533 14.6328581,20.0600533 12.9470516,20.0600533 Z M14.0104065,9.92245333 C14.3475677,9.92245333 14.5291161,10.2296533 14.5291161,10.8440533 C14.5291161,12.0472533 13.5435677,13.8392533 11.3649871,14.8376533 C11.8058903,12.4568533 12.8951806,9.92245333 14.0104065,9.92245333 Z" id="Path" fill="#313120" sketch:type="MSShapeGroup"></path>
                <path d="M30.9462774,7.64405333 C30.764729,7.13205333 30.6869226,6.64565333 30.6869226,6.18485333 C30.6869226,4.52085333 31.8799548,3.36885333 34.084471,3.36885333 C33.1248581,8.89845333 31.9058903,14.8632533 30.7906645,21.0840533 L32.1911806,21.0840533 C33.5138903,14.4792533 34.3956968,9.51285333 35.3034387,4.23925333 C35.3553097,3.98325333 35.4093419,3.75285333 35.4352774,3.49685333 C35.8480839,3.54805333 36.2889871,3.59925333 36.7298903,3.59925333 C37.7435355,3.59925333 38.8328258,3.36885333 39.5049871,2.34485333 L38.4416323,1.73045333 C37.9747935,2.47285333 37.2248258,2.80565333 36.1852452,2.80565333 C35.3034387,2.80565333 34.3178903,2.57525333 33.4620194,2.57525333 C30.5313097,2.57525333 29.3642129,4.52085333 29.3642129,6.49205333 C29.3642129,7.05525333 29.4420194,7.59285333 29.5976323,8.07925333 C30.0385355,7.92565333 30.4794387,7.77205333 30.9462774,7.64405333 L30.9462774,7.64405333 Z" id="Path" fill="#313120" sketch:type="MSShapeGroup"></path>
                <path d="M54.080729,19.3688533 C54.080729,18.0376533 55.2996968,15.9640533 55.2996968,14.0717867 C55.2996968,12.3544533 54.1066645,11.2792533 53.4582774,10.2808533 L53.6160516,9.76885333 C53.8473097,8.64245333 54.0547935,7.54165333 54.080729,6.18485333 L52.8617613,5.85205333 C52.576471,6.90165333 52.3949226,7.95125333 52.3949226,8.87285333 C52.3949226,9.54058667 52.472729,10.0504533 52.6542774,10.4344533 C52.3689871,11.9704533 51.9540194,13.5832533 51.4871806,14.9144533 C51.4871806,15.0936533 51.9540194,15.1704533 51.9540194,15.1704533 C52.3452129,14.1208533 52.7580194,12.7640533 53.0951806,11.4328533 C53.4582774,12.2776533 54.0029226,13.0712533 54.0029226,14.3000533 C54.0029226,15.9128533 52.7839548,17.7816533 52.7839548,19.5224533 C52.7839548,20.5720533 53.1989226,21.2120533 54.1606968,21.2120533 C55.8184065,21.2120533 56.7002129,18.7032533 58.0747935,15.1704533 C58.0747935,15.0424533 57.7116968,14.9144533 57.6079548,14.9144533 C56.3133419,18.2424533 55.3256323,20.0856533 54.5994387,20.0856533 C54.2882129,20.0856533 54.080729,19.8552533 54.080729,19.3688533 L54.080729,19.3688533 Z" id="Path" fill="#313120" sketch:type="MSShapeGroup"></path>
                <path d="M36.5224065,21.0840533 C36.6801806,20.1133867 36.8076968,19.1405867 36.9373742,18.1912533 C37.9747935,13.7624533 39.9718258,10.3832533 40.9055032,10.3832533 C41.1929548,10.3832533 41.3745032,10.6136533 41.3745032,11.2301867 C41.3745032,12.8664533 39.5309226,16.8856533 39.5309226,19.2664533 C39.5309226,20.5464533 40.1533742,21.2120533 41.0114065,21.2120533 C42.4378581,21.1864533 43.732471,18.6776533 44.7439548,16.0664533 L45.0811161,15.1960533 C45.0811161,15.1448533 44.7720516,14.9144533 44.6164387,14.9144533 C43.4731161,17.8584533 42.3319548,20.1133867 41.5560516,20.1133867 C41.1929548,20.1133867 40.9292774,19.7784533 40.9292774,19.0360533 C40.9292774,16.9368533 42.7469226,13.0968533 42.7469226,10.9464533 C42.7469226,9.87125333 42.1763419,9.33365333 41.5020194,9.33365333 C40.1036645,9.33365333 38.6231806,11.8168533 37.6376323,14.0440533 L38.0266645,12.4056533 C39.6865355,9.07765333 41.8932129,4.70005333 41.8932129,2.11445333 C41.8932129,1.29525333 41.5020194,0.885653333 40.8298581,0.885653333 C40.2311806,0.885653333 39.4790516,1.19285333 39.0381484,2.14005333 C37.6635677,5.00725333 36.4986323,13.2248533 35.5627935,18.4216533 C35.3553097,19.3432533 35.1996968,20.4717867 35.1996968,20.9560533 C35.1996968,21.0072533 35.2277935,21.0584533 35.2277935,21.0840533 L36.5224065,21.0840533 Z M41.0870516,2.34485333 C40.9292774,4.31605333 39.0381484,9.02645333 38.1822774,10.9464533 C39.0381484,6.36405333 39.9221161,1.75605333 40.7498903,1.75605333 C40.9573742,1.75605333 41.0870516,1.93525333 41.0870516,2.34485333 Z" id="Path" fill="#313120" sketch:type="MSShapeGroup"></path>
                <path d="M58.7231806,16.9880533 C58.7231806,16.5016533 58.7750516,16.0152533 58.8528581,15.5032533 C60.8261161,15.1448533 63.1840839,12.8408533 63.1840839,10.8184533 C63.1840839,9.89685333 62.6913097,9.23125333 61.7079226,9.23125333 C59.2159548,9.23125333 57.4026323,13.6088533 57.4026323,17.0925867 C57.4026323,19.3688533 58.1785355,21.2632533 60.1755677,21.2632533 C62.5616323,21.2632533 64.0918258,17.5256533 64.9498581,15.1704533 C64.9498581,15.0936533 64.6126968,14.9144533 64.4808581,14.9144533 C63.5731161,17.2952533 62.1985355,20.0600533 60.512729,20.0600533 C59.2159548,20.0600533 58.7231806,18.7032533 58.7231806,16.9880533 Z M61.5760839,9.92245333 C61.9132452,9.92245333 62.0947935,10.2296533 62.0947935,10.8440533 C62.0947935,12.0472533 61.1092452,13.8392533 58.9306645,14.8376533 C59.373729,12.4568533 60.4630194,9.92245333 61.5760839,9.92245333 Z" id="Path" fill="#313120" sketch:type="MSShapeGroup"></path>
            </g>
            <text id="I’m-Ashlyn" sketch:type="MSTextLayer" font-family="Franchise" font-size="70" font-weight="bold" sketch:alignment="middle" letter-spacing="3.11110973" fill="#313120">
                <tspan x="44.5244513" y="115">I’m Ashlyn</tspan>
            </text>
            <text id="Product-Designer" sketch:type="MSTextLayer" font-family="Franchise" font-size="40" font-weight="bold" sketch:alignment="middle" letter-spacing="2.07540441" fill="#313120">
                <tspan x="45.4567648" y="199.5">Product Designer</tspan>
            </text>
            <path d="M46.5,145.5 L286.5,145.5" id="Line" stroke="#313120" stroke-width="3" stroke-linecap="square" sketch:type="MSShapeGroup"></path>
        </g>
    </g>
</svg>