<?xml version="1.0" encoding="UTF-8" standalone="no"?>
<svg width="339px" height="252px" viewBox="0 0 339 252" version="1.1" xmlns="http://www.w3.org/2000/svg" xmlns:xlink="http://www.w3.org/1999/xlink" xmlns:sketch="http://www.bohemiancoding.com/sketch/ns">
    <!-- Generator: Sketch 3.3.1 (12002) - http://www.bohemiancoding.com/sketch -->
    <title>Artboard 1</title>
    <desc>Created with Sketch.</desc>
    <defs>
        <path id="path-1" d="M0,0.885866667 L64.789,0.885866667 L64.789,28.8666667 L0,28.8666667 L0,0.885866667 Z"></path>
    </defs>
    <g id="Page-1" stroke="none" stroke-width="1" fill="none" fill-rule="evenodd" sketch:type="MSPage">
        <g id="Artboard-1" sketch:type="MSArtboardGroup">
            <path d="M237.90625,12 L334,12 L334,246 L4,246 L4,12 L92.125,12" id="Rectangle-1" stroke="#313120" stroke-width="4" sketch:type="MSShapeGroup"></path>
            <g id="Group" sketch:type="MSLayerGroup" transform="translate(130.000000, 1.000000)">
                <g id="Imported-Layers" transform="translate(0.161290, 0.000000)">
                    <mask id="mask-2" sketch:name="Clip 2" fill="white">
                        <use xlink:href="#path-1"></use>
                    </mask>
                    <g id="Clip-2"></g>
                </g>
                <path d="M45.7295032,16.9880533 C45.7295032,16.5016533 45.7813742,16.0152533 45.8613419,15.5032533 C47.8324387,15.1448533 50.1925677,12.8408533 50.1925677,10.8184533 C50.1925677,9.89685333 49.6976323,9.23125333 48.7120839,9.23125333 C46.2244387,9.23125333 44.4089548,13.6088533 44.4089548,17.0925867 C44.4089548,19.3688533 45.1848581,21.2632533 47.1818903,21.2632533 C49.5679548,21.2632533 51.1003097,17.5256533 51.9540194,15.1704533 C51.9540194,15.0936533 51.6190194,14.9144533 51.4871806,14.9144533 C50.5794387,17.2952533 49.2048581,20.0600533 47.5190516,20.0600533 C46.2244387,20.0600533 45.7295032,18.7032533 45.7295032,16.9880533 Z M48.5845677,9.92245333 C48.921729,9.92245333 49.1032774,10.2296533 49.1032774,10.8440533 C49.1032774,12.0472533 48.1155677,13.8392533 45.9369871,14.8376533 C46.3778903,12.4568533 47.4693419,9.92245333 48.5845677,9.92245333 Z" id="Path" fill="#313120" sketch:type="MSShapeGroup"></path>
                <path d="M9.00485806,2.65205333 C8.53801935,5.44245333 7.96743871,8.33525333 7.39685806,11.3560533 L3.40279355,11.3560533 C3.97337419,8.36085333 4.46614839,5.54485333 4.95892258,2.65205333 L3.55840645,2.65205333 C3.06563226,5.44245333 2.5209871,8.33525333 1.95040645,11.3560533 L0.549890323,11.3560533 L0.394277419,12.1752533 L1.79479355,12.1752533 C1.25014839,15.0936533 0.679567742,18.0888533 0.160858065,21.0840533 L1.53543871,21.0840533 C2.15789032,17.9608533 2.70253548,15.0424533 3.24718065,12.1752533 L7.24124516,12.1752533 C6.6966,15.0936533 6.12601935,18.0888533 5.58137419,21.0840533 L6.98189032,21.0840533 C8.40834194,13.9416533 9.39389032,8.41205333 10.3794387,2.65205333 L9.00485806,2.65205333 Z" id="Path" fill="#313120" sketch:type="MSShapeGroup"></path>
                <path d="M24.6698903,14.9144533 C23.7621484,17.2184533 22.4913097,18.8824533 21.220471,20.2648533 C22.024471,15.8360533 22.9840839,10.5368533 23.2953097,9.41045333 L21.9466645,9.41045333 C21.7132452,10.4344533 21.4020194,12.1752533 21.0648581,14.0717867 C20.416471,17.1160533 19.2234387,20.1133867 18.2897613,20.1133867 C17.9526,20.1133867 17.7191806,19.8040533 17.7191806,18.9848533 C17.7191806,16.3224533 19.1456323,10.8184533 19.4049871,9.41045333 L18.0304065,9.41045333 C17.8488581,10.3832533 16.6298903,15.0936533 16.5002129,18.1656533 C16.5002129,19.9832533 16.7595677,21.2120533 17.8488581,21.2120533 C18.6787935,21.2120533 19.612471,20.1368533 20.2867935,18.6029867 C20.1052452,19.6760533 19.9236968,20.7768533 19.7162129,21.8029867 C17.9526,23.5672533 16.3446,25.1032533 16.3446,27.0509867 C16.3446,28.2029867 16.9929871,28.8664533 17.900729,28.8664533 C20.0533742,28.8664533 20.4424065,24.6168533 21.0389226,21.3400533 C22.4913097,19.8552533 24.0993097,17.9608533 25.1886,15.1704533 C25.2145355,15.0168533 24.8514387,14.9144533 24.6698903,14.9144533 Z M17.2264065,27.0509867 C17.2264065,25.4616533 18.2638258,24.1816533 19.5346645,22.8760533 L18.8603419,26.6136533 C18.704729,27.5096533 18.3935032,28.0472533 17.900729,28.0472533 C17.5376323,28.0472533 17.2264065,27.7400533 17.2264065,27.0509867 Z" id="Path" fill="#313120" sketch:type="MSShapeGroup"></path>
                <path d="M12.9470516,20.0600533 C11.6502774,20.0600533 11.1575032,18.7032533 11.1575032,16.9880533 C11.1575032,16.5016533 11.2093742,16.0152533 11.2871806,15.5032533 C13.2582774,15.1448533 15.6184065,12.8408533 15.6184065,10.8184533 C15.6184065,9.89685333 15.1256323,9.23125333 14.1400839,9.23125333 C11.6502774,9.23125333 9.83479355,13.6088533 9.83479355,17.0925867 C9.83479355,19.3688533 10.6128581,21.2632533 12.6098903,21.2632533 C14.9959548,21.2632533 16.5261484,17.5256533 17.3820194,15.1704533 C17.3820194,15.0936533 17.0448581,14.9144533 16.9151806,14.9144533 C16.0074387,17.2952533 14.6328581,20.0600533 12.9470516,20.0600533 Z M14.0104065,9.92245333 C14.3475677,9.92245333 14.5291161,10.2296533 14.5291161,10.8440533 C14.5291161,12.0472533 13.5435677,13.8392533 11.3649871,14.8376533 C11.8058903,12.4568533 12.8951806,9.92245333 14.0104065,9.92245333 Z" id="Path" fill="#313120" sketch:type="MSShapeGroup"></path>
                <path d="M30.9462774,7.64405333 C30.764729,7.13205333 30.6869226,6.64565333 30.6869226,6.18485333 C30.6869226,4.52085333 31.8799548,3.36885333 34.084471,3.36885333 C33.1248581,8.89845333 31.9058903,14.8632533 30.7906645,21.0840533 L32.1911806,21.0840533 C33.5138903,14.4792533 34.3956968,9.51285333 35.3034387,4.23925333 C35.3553097,3.98325333 35.4093419,3.75285333 35.4352774,3.49685333 C35.8480839,3.54805333 36.2889871,3.59925333 36.7298903,3.59925333 C37.7435355,3.59925333 38.8328258,3.36885333 39.5049871,2.34485333 L38.4416323,1.73045333 C37.9747935,2.47285333 37.2248258,2.80565333 36.1852452,2.80565333 C35.3034387,2.80565333 34.3178903,2.57525333 33.4620194,2.57525333 C30.5313097,2.57525333 29.3642129,4.52085333 29.3642129,6.49205333 C29.3642129,7.05525333 29.4420194,7.59285333 29.5976323,8.07925333 C30.0385355,7.92565333 30.4794387,7.77205333 30.9462774,7.64405333 L30.9462774,7.64405333 Z" id="Path" fill="#313120" sketch:type="MSShapeGroup"></path>
                <path d="M54.080729,19.3688533 C54.080729,18.0376533 55.2996968,15.9640533 55.2996968,14.0717867 C55.2996968,12.3544533 54.1066645,11.2792533 53.4582774,10.2808533 L53.6160516,9.76885333 C53.8473097,8.64245333 54.0547935,7.54165333 54.080729,6.18485333 L52.8617613,5.85205333 C52.576471,6.90165333 52.3949226,7.95125333 52.3949226,8.87285333 C52.3949226,9.54058667 52.472729,10.0504533 52.6542774,10.4344533 C52.3689871,11.9704533 51.9540194,13.5832533 51.4871806,14.9144533 C51.4871806,15.0936533 51.9540194,15.1704533 51.9540194,15.1704533 C52.3452129,14.1208533 52.7580194,12.7640533 53.0951806,11.4328533 C53.4582774,12.2776533 54.0029226,13.0712533 54.0029226,14.3000533 C54.0029226,15.9128533 52.7839548,17.7816533 52.7839548,19.5224533 C52.7839548,20.5720533 53.1989226,21.2120533 54.1606968,21.2120533 C55.8184065,21.2120533 56.7002129,18.7032533 58.0747935,15.1704533 C58.0747935,15.0424533 57.7116968,14.9144533 57.6079548,14.9144533 C56.3133419,18.2424533 55.3256323,20.0856533 54.5994387,20.0856533 C54.2882129,20.0856533 54.080729,19.8552533 54.080729,19.3688533 L54.080729,19.3688533 Z" id="Path" fill="#313120" sketch:type="MSShapeGroup"></path>
                <path d="M36.5224065,21.0840533 C36.6801806,20.1133867 36.8076968,19.1405867 36.9373742,18.1912533 C37.9747935,13.7624533 39.9718258,10.3832533 40.9055032,10.3832533 C41.1929548,10.3832533 41.3745032,10.6136533 41.3745032,11.2301867 C41.3745032,12.8664533 39.5309226,16.8856533 39.5309226,19.2664533 C39.5309226,20.5464533 40.1533742,21.2120533 41.0114065,21.2120533 C42.4378581,21.1864533 43.732471,18.6776533 44.7439548,16.0664533 L45.0811161,15.1960533 C45.0811161,15.1448533 44.7720516,14.9144533 44.6164387,14.9144533 C43.4731161,17.8584533 42.3319548,20.1133867 41.5560516,20.1133867 C41.1929548,20.1133867 40.9292774,19.7784533 40.9292774,19.0360533 C40.9292774,16.9368533 42.7469226,13.0968533 42.7469226,10.9464533 C42.7469226,9.87125333 42.1763419,9.33365333 41.5020194,9.33365333 C40.1036645,9.33365333 38.6231806,11.8168533 37.6376323,14.0440533 L38.0266645,12.4056533 C39.6865355,9.07765333 41.8932129,4.70005333 41.8932129,2.11445333 C41.8932129,1.29525333 41.5020194,0.885653333 40.8298581,0.885653333 C40.2311806,0.885653333 39.4790516,1.19285333 39.0381484,2.14005333 C37.6635677,5.00725333 36.4986323,13.2248533 35.5627935,18.4216533 C35.3553097,19.3432533 35.1996968,20.4717867 35.1996968,20.9560533 C35.1996968,21.0072533 35.2277935,21.0584533 35.2277935,21.0840533 L36.5224065,21.0840533 Z M41.0870516,2.34485333 C40.9292774,4.31605333 39.0381484,9.02645333 38.1822774,10.9464533 C39.0381484,6.36405333 39.9221161,1.75605333 40.7498903,1.75605333 C40.9573742,1.75605333 41.0870516,1.93525333 41.0870516,2.34485333 Z" id="Path" fill="#313120" sketch:type="MSShapeGroup"></path>
                <path d="M58.7231806,16.9880533 C58.7231806,16.5016533 58.7750516,16.0152533 58.8528581,15.5032533 C60.8261161,15.1448533 63.1840839,12.8408533 63.1840839,10.8184533 C63.1840839,9.89685333 62.6913097,9.23125333 61.7079226,9.23125333 C59.2159548,9.23125333 57.4026323,13.6088533 57.4026323,17.0925867 C57.4026323,19.3688533 58.1785355,21.2632533 60.1755677,21.2632533 C62.5616323,21.2632533 64.0918258,17.5256533 64.9498581,15.1704533 C64.9498581,15.0936533 64.6126968,14.9144533 64.4808581,14.9144533 C63.5731161,17.2952533 62.1985355,20.0600533 60.512729,20.0600533 C59.2159548,20.0600533 58.7231806,18.7032533 58.7231806,16.9880533 Z M61.5760839,9.92245333 C61.9132452,9.92245333 62.0947935,10.2296533 62.0947935,10.8440533 C62.0947935,12.0472533 61.1092452,13.8392533 58.9306645,14.8376533 C59.373729,12.4568533 60.4630194,9.92245333 61.5760839,9.92245333 Z" id="Path" fill="#313120" sketch:type="MSShapeGroup"></path>
            </g>
            <path d="M46.5,145.5 L286.5,145.5" id="Line" stroke="#313120" stroke-width="3" stroke-linecap="square" sketch:type="MSShapeGroup"></path>
            <path d="M55.8644513,114.02 C55.8644513,114.673337 55.5377879,115 54.8844513,115 L48.6544513,115 C48.0011147,115 47.6744513,114.673337 47.6744513,114.02 L47.6744513,66.98 C47.6744513,66.3266634 48.0011147,66 48.6544513,66 L54.8844513,66 C55.5377879,66 55.8644513,66.3266634 55.8644513,66.98 L55.8644513,114.02 Z M64.4355611,79.72 L64.4355611,78.67 C64.4355611,78.6233331 64.4588942,78.5533338 64.5055611,78.46 C64.6455618,78.3199993 64.7622273,78.25 64.8555611,78.25 C65.2755632,78.25 65.8472241,78.0516686 66.5705611,77.655 C67.293898,77.2583313 67.7722266,76.4066732 68.0055611,75.1 C68.052228,74.9133324 68.0638945,74.6916679 68.0405611,74.435 C68.0172276,74.178332 67.9355618,74.0033338 67.7955611,73.91 C67.7022273,73.8166662 67.527229,73.8049996 67.2705611,73.875 C67.0138931,73.9450003 66.8155618,73.98 66.6755611,73.98 C65.8822238,73.98 65.2405635,73.875001 64.7505611,73.665 C64.2605586,73.454999 63.8055632,73.1633352 63.3855611,72.79 C62.5455569,72.0433296 62.1255611,70.970007 62.1255611,69.57 C62.1255611,68.5433282 62.4988907,67.6333373 63.2455611,66.84 C64.0855653,65.9533289 65.1588879,65.51 66.4655611,65.51 C67.8655681,65.51 69.00889,65.976662 69.8955611,66.91 C70.7822322,67.843338 71.3188935,68.9866599 71.5055611,70.34 C71.5988949,70.806669 71.6572276,71.273331 71.6805611,71.74 C71.7038945,72.206669 71.6688949,72.673331 71.5755611,73.14 C71.3888935,74.4000063 71.0038973,75.5433282 70.4205611,76.57 C69.8372248,77.5966718 69.0088998,78.4599965 67.9355611,79.16 C67.6555597,79.3466676 67.3638959,79.5216658 67.0605611,79.685 C66.7572262,79.8483341 66.4422294,79.9766662 66.1155611,80.07 C66.0688942,80.07 65.9288956,80.0933331 65.6955611,80.14 C65.4622266,80.1866669 65.2288956,80.2333331 64.9955611,80.28 C64.9022273,80.28 64.8088949,80.2566669 64.7155611,80.21 C64.5288935,80.1166662 64.4355611,79.9533345 64.4355611,79.72 L64.4355611,79.72 Z M104.296671,73 C104.950007,73 105.276671,73.3266634 105.276671,73.98 L105.276671,114.02 C105.276671,114.673337 104.950007,115 104.296671,115 L97.5766708,115 C96.9233342,115 96.5966708,114.673337 96.5966708,114.02 L96.5966708,95.4 L91.9766708,112.06 C91.883337,112.293335 91.7666715,112.41 91.6266708,112.41 C91.4866701,112.41 91.3700046,112.293335 91.2766708,112.06 L86.6566708,95.4 L86.6566708,114.02 C86.6566708,114.673337 86.3300074,115 85.6766708,115 L78.9566708,115 C78.3033342,115 77.9766708,114.673337 77.9766708,114.02 L77.9766708,73.98 C77.9766708,73.3266634 78.3033342,73 78.9566708,73 L84.9066708,73 C85.1866722,73 85.4316697,73.1049989 85.6416708,73.315 C85.8516718,73.5250011 86.003337,73.7466655 86.0966708,73.98 L91.6266708,95.54 L97.1566708,73.98 C97.2500046,73.7466655 97.4016697,73.5250011 97.6116708,73.315 C97.8216718,73.1049989 98.0666694,73 98.3466708,73 L104.296671,73 Z M147.33889,114.02 C147.432224,114.673337 147.152227,115 146.49889,115 L140.12889,115 C139.522221,115 139.172224,114.673337 139.07889,114.02 L138.51889,106.46 L134.17889,106.46 L133.61889,114.02 C133.525556,114.673337 133.17556,115 132.56889,115 L126.19889,115 C125.545554,115 125.265556,114.673337 125.35889,114.02 L130.60889,66.98 C130.702224,66.3266634 131.075554,66 131.72889,66 L140.96889,66 C141.622227,66 141.995556,66.3266634 142.08889,66.98 L147.33889,114.02 Z M137.95889,98.62 L136.62889,79.65 L136.06889,79.65 L134.73889,98.62 L137.95889,98.62 Z M165.5,72.51 C166.713339,72.51 167.856661,72.743331 168.93,73.21 C170.003339,73.676669 170.936663,74.3066627 171.73,75.1 C172.523337,75.8933373 173.153331,76.8266613 173.62,77.9 C174.086669,78.9733387 174.32,80.1166606 174.32,81.33 L174.32,83.99 C174.32,84.6433366 174.01667,85.0633324 173.41,85.25 L167.04,86.93 C166.43333,87.1166676 166.13,86.8833366 166.13,86.23 L166.13,81.68 C166.13,81.213331 165.966668,80.8166683 165.64,80.49 C165.313332,80.1633317 164.916669,80 164.45,80 L163.89,80 C163.423331,80 163.026668,80.1633317 162.7,80.49 C162.373332,80.8166683 162.21,81.213331 162.21,81.68 L162.21,85.95 C162.256667,86.4633359 162.349999,86.9066648 162.49,87.28 C162.630001,87.6533352 162.886665,88.0266648 163.26,88.4 L172.43,95.26 C173.17667,95.9133366 173.654999,96.5783299 173.865,97.255 C174.075001,97.93167 174.226666,98.6899958 174.32,99.53 L174.32,106.67 C174.32,107.883339 174.086669,109.026661 173.62,110.1 C173.153331,111.173339 172.523337,112.106663 171.73,112.9 C170.936663,113.693337 170.003339,114.323331 168.93,114.79 C167.856661,115.256669 166.713339,115.49 165.5,115.49 L162.84,115.49 C161.626661,115.49 160.483339,115.256669 159.41,114.79 C158.336661,114.323331 157.403337,113.693337 156.61,112.9 C155.816663,112.106663 155.186669,111.173339 154.72,110.1 C154.253331,109.026661 154.02,107.883339 154.02,106.67 L154.02,102.75 C154.02,102.096663 154.32333,101.676668 154.93,101.49 L161.3,99.81 C161.90667,99.6233324 162.21,99.8566634 162.21,100.51 L162.21,106.32 C162.21,106.786669 162.373332,107.183332 162.7,107.51 C163.026668,107.836668 163.423331,108 163.89,108 L164.45,108 C164.916669,108 165.313332,107.836668 165.64,107.51 C165.966668,107.183332 166.13,106.786669 166.13,106.32 L166.13,101.98 C166.083333,101.37333 165.990001,100.836669 165.85,100.37 C165.709999,99.903331 165.430002,99.4833352 165.01,99.11 L155.98,92.18 C155.279997,91.5266634 154.778335,90.8733366 154.475,90.22 C154.171665,89.5666634 154.02,88.7033387 154.02,87.63 L154.02,81.33 C154.02,80.1166606 154.253331,78.9733387 154.72,77.9 C155.186669,76.8266613 155.816663,75.8933373 156.61,75.1 C157.403337,74.3066627 158.336661,73.676669 159.41,73.21 C160.483339,72.743331 161.626661,72.51 162.84,72.51 L165.5,72.51 Z M202.70111,73 C203.354446,73 203.68111,73.3266634 203.68111,73.98 L203.68111,114.02 C203.68111,114.673337 203.354446,115 202.70111,115 L196.47111,115 C195.817773,115 195.49111,114.673337 195.49111,114.02 L195.49111,98.2 L190.87111,98.2 L190.87111,114.02 C190.87111,114.673337 190.544446,115 189.89111,115 L183.66111,115 C183.007773,115 182.68111,114.673337 182.68111,114.02 L182.68111,73.98 C182.68111,73.3266634 183.007773,73 183.66111,73 L189.89111,73 C190.544446,73 190.87111,73.3266634 190.87111,73.98 L190.87111,90.01 L195.49111,90.01 L195.49111,73.98 C195.49111,73.3266634 195.817773,73 196.47111,73 L202.70111,73 Z M230.312219,106.81 C230.965556,106.81 231.292219,107.136663 231.292219,107.79 L231.292219,114.02 C231.292219,114.673337 230.965556,115 230.312219,115 L220.862219,115 L220.722219,115 L220.652219,115 L214.422219,115 C213.768883,115 213.442219,114.673337 213.442219,114.02 L213.442219,73.98 C213.442219,73.3266634 213.768883,73 214.422219,73 L220.652219,73 C221.305556,73 221.632219,73.3266634 221.632219,73.98 L221.632219,106.81 L230.312219,106.81 Z M257.083329,73 C257.363331,73 257.573329,73.1049989 257.713329,73.315 C257.85333,73.5250011 257.876663,73.7466655 257.783329,73.98 L249.733329,98.76 L249.733329,114.02 C249.733329,114.673337 249.406666,115 248.753329,115 L242.453329,115 C241.799993,115 241.473329,114.673337 241.473329,114.02 L241.473329,98.76 L233.423329,73.98 C233.329995,73.7466655 233.353329,73.5250011 233.493329,73.315 C233.63333,73.1049989 233.843328,73 234.123329,73 L241.543329,73 C242.196666,73 242.569995,73.3266634 242.663329,73.98 L245.463329,87.42 L245.743329,87.42 L248.543329,73.98 C248.636663,73.3266634 249.009993,73 249.663329,73 L257.083329,73 Z M286.234439,73 C286.887776,73 287.214439,73.3266634 287.214439,73.98 L287.214439,114.02 C287.214439,114.673337 286.887776,115 286.234439,115 L281.754439,115 C281.474438,115 281.206107,114.906668 280.949439,114.72 C280.692771,114.533332 280.517773,114.323335 280.424439,114.09 L273.004439,95.82 L273.004439,114.02 C273.004439,114.673337 272.677776,115 272.024439,115 L265.794439,115 C265.141102,115 264.814439,114.673337 264.814439,114.02 L264.814439,73.98 C264.814439,73.3266634 265.141102,73 265.794439,73 L270.414439,73 C270.69444,73 270.962771,73.0933324 271.219439,73.28 C271.476107,73.4666676 271.651105,73.6766655 271.744439,73.91 L279.024439,94.28 L279.024439,73.98 C279.024439,73.3266634 279.351102,73 280.004439,73 L286.234439,73 Z" id="I’m-Ashlyn" fill="#313120" sketch:type="MSShapeGroup"></path>
            <path d="M53.8167648,171.5 C54.5101016,171.5 55.1634284,171.633332 55.7767648,171.9 C56.3901012,172.166668 56.9234292,172.526664 57.3767648,172.98 C57.8301004,173.433336 58.1900968,173.966664 58.4567648,174.58 C58.7234328,175.193336 58.8567648,175.846663 58.8567648,176.54 L58.8567648,183.06 C58.8567648,183.753337 58.7234328,184.406664 58.4567648,185.02 C58.1900968,185.633336 57.8301004,186.166664 57.3767648,186.62 C56.9234292,187.073336 56.3901012,187.433332 55.7767648,187.7 C55.1634284,187.966668 54.5101016,188.1 53.8167648,188.1 L51.9367648,188.1 L51.9367648,198.94 C51.9367648,199.313335 51.7501,199.5 51.3767648,199.5 L47.8167648,199.5 C47.4434296,199.5 47.2567648,199.313335 47.2567648,198.94 L47.2567648,172.06 C47.2567648,171.686665 47.4434296,171.5 47.8167648,171.5 L53.8167648,171.5 Z M54.1767648,176.74 C54.1767648,176.473332 54.0834324,176.246668 53.8967648,176.06 C53.7100972,175.873332 53.4834328,175.78 53.2167648,175.78 L51.9367648,175.78 L51.9367648,183.82 L53.2167648,183.82 C53.4834328,183.82 53.7100972,183.726668 53.8967648,183.54 C54.0834324,183.353332 54.1767648,183.126668 54.1767648,182.86 L54.1767648,176.74 Z M68.2121692,198.94 C68.2121692,199.313335 68.0121712,199.5 67.6121692,199.5 L64.0521692,199.5 C63.7055008,199.5 63.5321692,199.313335 63.5321692,198.94 L63.5321692,176.06 C63.5321692,175.686665 63.718834,175.5 64.0921692,175.5 L70.0921692,175.5 C70.785506,175.5 71.4388328,175.633332 72.0521692,175.9 C72.6655056,176.166668 73.1988336,176.526664 73.6521692,176.98 C74.1055048,177.433336 74.4655012,177.966664 74.7321692,178.58 C74.9988372,179.193336 75.1321692,179.846663 75.1321692,180.54 L75.1321692,185.46 C75.1321692,186.446672 74.8388388,187.333329 74.2521692,188.12 C73.6654996,188.906671 72.95884,189.513331 72.1321692,189.94 L75.9321692,198.94 C76.0121696,199.313335 75.8788376,199.5 75.5321692,199.5 L71.8921692,199.5 C71.7321684,199.5 71.5788366,199.446667 71.4321692,199.34 C71.2855018,199.233333 71.1855028,199.100001 71.1321692,198.94 L68.2121692,191.54 L68.2121692,198.94 Z M68.2121692,186.22 L69.4921692,186.22 C69.7588372,186.22 69.9855016,186.126668 70.1721692,185.94 C70.3588368,185.753332 70.4521692,185.526668 70.4521692,185.26 L70.4521692,180.74 C70.4521692,180.473332 70.3588368,180.246668 70.1721692,180.06 C69.9855016,179.873332 69.7588372,179.78 69.4921692,179.78 L68.2121692,179.78 L68.2121692,186.22 Z M91.8475736,194.74 C91.8475736,195.433337 91.7142416,196.086664 91.4475736,196.7 C91.1809056,197.313336 90.8209092,197.846664 90.3675736,198.3 C89.914238,198.753336 89.38091,199.113332 88.7675736,199.38 C88.1542372,199.646668 87.5009104,199.78 86.8075736,199.78 L85.2875736,199.78 C84.5942368,199.78 83.94091,199.646668 83.3275736,199.38 C82.7142372,199.113332 82.1809092,198.753336 81.7275736,198.3 C81.274238,197.846664 80.9142416,197.313336 80.6475736,196.7 C80.3809056,196.086664 80.2475736,195.433337 80.2475736,194.74 L80.2475736,180.26 C80.2475736,179.566663 80.3809056,178.913336 80.6475736,178.3 C80.9142416,177.686664 81.274238,177.153336 81.7275736,176.7 C82.1809092,176.246664 82.7142372,175.886668 83.3275736,175.62 C83.94091,175.353332 84.5942368,175.22 85.2875736,175.22 L86.8075736,175.22 C87.5009104,175.22 88.1542372,175.353332 88.7675736,175.62 C89.38091,175.886668 89.914238,176.246664 90.3675736,176.7 C90.8209092,177.153336 91.1809056,177.686664 91.4475736,178.3 C91.7142416,178.913336 91.8475736,179.566663 91.8475736,180.26 L91.8475736,194.74 Z M87.1675736,180.46 C87.1675736,180.193332 87.0742412,179.966668 86.8875736,179.78 C86.700906,179.593332 86.4742416,179.5 86.2075736,179.5 L85.8875736,179.5 C85.6209056,179.5 85.3942412,179.593332 85.2075736,179.78 C85.020906,179.966668 84.9275736,180.193332 84.9275736,180.46 L84.9275736,194.54 C84.9275736,194.806668 85.020906,195.033332 85.2075736,195.22 C85.3942412,195.406668 85.6209056,195.5 85.8875736,195.5 L86.2075736,195.5 C86.4742416,195.5 86.700906,195.406668 86.8875736,195.22 C87.0742412,195.033332 87.1675736,194.806668 87.1675736,194.54 L87.1675736,180.46 Z M103.682978,175.5 C104.376315,175.5 105.029642,175.633332 105.642978,175.9 C106.256314,176.166668 106.789642,176.526664 107.242978,176.98 C107.696314,177.433336 108.05631,177.966664 108.322978,178.58 C108.589646,179.193336 108.722978,179.846663 108.722978,180.54 L108.722978,194.46 C108.722978,195.153337 108.589646,195.806664 108.322978,196.42 C108.05631,197.033336 107.696314,197.566664 107.242978,198.02 C106.789642,198.473336 106.256314,198.833332 105.642978,199.1 C105.029642,199.366668 104.376315,199.5 103.682978,199.5 L97.682978,199.5 C97.3096428,199.5 97.122978,199.313335 97.122978,198.94 L97.122978,176.06 C97.122978,175.686665 97.3096428,175.5 97.682978,175.5 L103.682978,175.5 Z M104.042978,180.74 C104.042978,180.473332 103.949646,180.246668 103.762978,180.06 C103.57631,179.873332 103.349646,179.78 103.082978,179.78 L101.802978,179.78 L101.802978,195.22 L103.082978,195.22 C103.349646,195.22 103.57631,195.126668 103.762978,194.94 C103.949646,194.753332 104.042978,194.526668 104.042978,194.26 L104.042978,180.74 Z M124.638382,175.5 C125.011718,175.5 125.198382,175.686665 125.198382,176.06 L125.198382,194.74 C125.198382,195.433337 125.06505,196.086664 124.798382,196.7 C124.531714,197.313336 124.171718,197.846664 123.718382,198.3 C123.265047,198.753336 122.731719,199.113332 122.118382,199.38 C121.505046,199.646668 120.851719,199.78 120.158382,199.78 L118.638382,199.78 C117.945046,199.78 117.291719,199.646668 116.678382,199.38 C116.065046,199.113332 115.531718,198.753336 115.078382,198.3 C114.625047,197.846664 114.26505,197.313336 113.998382,196.7 C113.731714,196.086664 113.598382,195.433337 113.598382,194.74 L113.598382,176.06 C113.598382,175.686665 113.785047,175.5 114.158382,175.5 L117.718382,175.5 C118.091718,175.5 118.278382,175.686665 118.278382,176.06 L118.278382,194.54 C118.278382,194.806668 118.371715,195.033332 118.558382,195.22 C118.74505,195.406668 118.971714,195.5 119.238382,195.5 L119.558382,195.5 C119.82505,195.5 120.051715,195.406668 120.238382,195.22 C120.42505,195.033332 120.518382,194.806668 120.518382,194.54 L120.518382,176.06 C120.518382,175.686665 120.705047,175.5 121.078382,175.5 L124.638382,175.5 Z M136.633787,175.22 C137.327124,175.22 137.98045,175.353332 138.593787,175.62 C139.207123,175.886668 139.740451,176.246664 140.193787,176.7 C140.647122,177.153336 141.007119,177.686664 141.273787,178.3 C141.540455,178.913336 141.673787,179.566663 141.673787,180.26 L141.673787,182.66 C141.673787,183.033335 141.500455,183.273333 141.153787,183.38 L137.513787,183.94 C137.167118,184.046667 136.993787,183.913335 136.993787,183.54 L136.993787,180.46 C136.993787,180.193332 136.900454,179.966668 136.713787,179.78 C136.527119,179.593332 136.300455,179.5 136.033787,179.5 L135.713787,179.5 C135.447119,179.5 135.220454,179.593332 135.033787,179.78 C134.847119,179.966668 134.753787,180.193332 134.753787,180.46 L134.753787,194.54 C134.753787,194.806668 134.847119,195.033332 135.033787,195.22 C135.220454,195.406668 135.447119,195.5 135.713787,195.5 L136.033787,195.5 C136.300455,195.5 136.527119,195.406668 136.713787,195.22 C136.900454,195.033332 136.993787,194.806668 136.993787,194.54 L136.993787,189.74 C136.993787,189.366665 137.167118,189.233333 137.513787,189.34 L141.153787,189.82 C141.500455,189.926667 141.673787,190.166665 141.673787,190.54 L141.673787,194.74 C141.673787,195.433337 141.540455,196.086664 141.273787,196.7 C141.007119,197.313336 140.647122,197.846664 140.193787,198.3 C139.740451,198.753336 139.207123,199.113332 138.593787,199.38 C137.98045,199.646668 137.327124,199.78 136.633787,199.78 L135.113787,199.78 C134.42045,199.78 133.767123,199.646668 133.153787,199.38 C132.54045,199.113332 132.007122,198.753336 131.553787,198.3 C131.100451,197.846664 130.740455,197.313336 130.473787,196.7 C130.207119,196.086664 130.073787,195.433337 130.073787,194.74 L130.073787,180.26 C130.073787,179.566663 130.207119,178.913336 130.473787,178.3 C130.740455,177.686664 131.100451,177.153336 131.553787,176.7 C132.007122,176.246664 132.54045,175.886668 133.153787,175.62 C133.767123,175.353332 134.42045,175.22 135.113787,175.22 L136.633787,175.22 Z M156.029191,175.5 C156.402526,175.5 156.589191,175.686665 156.589191,176.06 L156.589191,179.62 C156.589191,179.993335 156.402526,180.18 156.029191,180.18 L153.189191,180.18 L153.189191,198.94 C153.189191,199.313335 153.002526,199.5 152.629191,199.5 L149.069191,199.5 C148.935857,199.5 148.809192,199.446667 148.689191,199.34 C148.569191,199.233333 148.509191,199.100001 148.509191,198.94 L148.509191,180.18 L145.709191,180.18 C145.335856,180.18 145.149191,179.993335 145.149191,179.62 L145.149191,176.06 C145.149191,175.686665 145.335856,175.5 145.709191,175.5 L156.029191,175.5 Z M175.38,171.5 C176.073337,171.5 176.726664,171.633332 177.34,171.9 C177.953336,172.166668 178.486664,172.526664 178.94,172.98 C179.393336,173.433336 179.753332,173.966664 180.02,174.58 C180.286668,175.193336 180.42,175.846663 180.42,176.54 L180.42,194.46 C180.42,195.153337 180.286668,195.806664 180.02,196.42 C179.753332,197.033336 179.393336,197.566664 178.94,198.02 C178.486664,198.473336 177.953336,198.833332 177.34,199.1 C176.726664,199.366668 176.073337,199.5 175.38,199.5 L169.38,199.5 C169.006665,199.5 168.82,199.313335 168.82,198.94 L168.82,172.06 C168.82,171.686665 169.006665,171.5 169.38,171.5 L175.38,171.5 Z M175.74,176.74 C175.74,176.473332 175.646668,176.246668 175.46,176.06 C175.273332,175.873332 175.046668,175.78 174.78,175.78 L173.5,175.78 L173.5,195.22 L174.78,195.22 C175.046668,195.22 175.273332,195.126668 175.46,194.94 C175.646668,194.753332 175.74,194.526668 175.74,194.26 L175.74,176.74 Z M194.935404,194.82 C195.30874,194.82 195.495404,195.006665 195.495404,195.38 L195.495404,198.94 C195.495404,199.313335 195.30874,199.5 194.935404,199.5 L186.255404,199.5 C185.882069,199.5 185.695404,199.313335 185.695404,198.94 L185.695404,176.06 C185.695404,175.686665 185.882069,175.5 186.255404,175.5 L194.935404,175.5 C195.30874,175.5 195.495404,175.686665 195.495404,176.06 L195.495404,179.62 C195.495404,179.993335 195.30874,180.18 194.935404,180.18 L190.375404,180.18 L190.375404,184.74 L194.335404,184.74 C194.70874,184.74 194.895404,184.926665 194.895404,185.3 L194.895404,188.86 C194.895404,189.233335 194.70874,189.42 194.335404,189.42 L190.375404,189.42 L190.375404,194.82 L194.935404,194.82 Z M206.530809,175.22 C207.224146,175.22 207.877472,175.353332 208.490809,175.62 C209.104145,175.886668 209.637473,176.246664 210.090809,176.7 C210.544144,177.153336 210.904141,177.686664 211.170809,178.3 C211.437477,178.913336 211.570809,179.566663 211.570809,180.26 L211.570809,181.78 C211.570809,182.153335 211.397477,182.393333 211.050809,182.5 L207.410809,183.46 C207.06414,183.566667 206.890809,183.433335 206.890809,183.06 L206.890809,180.46 C206.890809,180.193332 206.797476,179.966668 206.610809,179.78 C206.424141,179.593332 206.197477,179.5 205.930809,179.5 L205.610809,179.5 C205.344141,179.5 205.117476,179.593332 204.930809,179.78 C204.744141,179.966668 204.650809,180.193332 204.650809,180.46 L204.650809,182.9 C204.677476,183.193335 204.730808,183.446666 204.810809,183.66 C204.890809,183.873334 205.037474,184.086666 205.250809,184.3 L210.490809,188.22 C210.917478,188.593335 211.190808,188.973331 211.310809,189.36 C211.430809,189.746669 211.517475,190.179998 211.570809,190.66 L211.570809,194.74 C211.570809,195.433337 211.437477,196.086664 211.170809,196.7 C210.904141,197.313336 210.544144,197.846664 210.090809,198.3 C209.637473,198.753336 209.104145,199.113332 208.490809,199.38 C207.877472,199.646668 207.224146,199.78 206.530809,199.78 L205.010809,199.78 C204.317472,199.78 203.664145,199.646668 203.050809,199.38 C202.437472,199.113332 201.904144,198.753336 201.450809,198.3 C200.997473,197.846664 200.637477,197.313336 200.370809,196.7 C200.104141,196.086664 199.970809,195.433337 199.970809,194.74 L199.970809,192.5 C199.970809,192.126665 200.14414,191.886667 200.490809,191.78 L204.130809,190.82 C204.477477,190.713333 204.650809,190.846665 204.650809,191.22 L204.650809,194.54 C204.650809,194.806668 204.744141,195.033332 204.930809,195.22 C205.117476,195.406668 205.344141,195.5 205.610809,195.5 L205.930809,195.5 C206.197477,195.5 206.424141,195.406668 206.610809,195.22 C206.797476,195.033332 206.890809,194.806668 206.890809,194.54 L206.890809,192.06 C206.864142,191.713332 206.810809,191.406668 206.730809,191.14 C206.650808,190.873332 206.49081,190.633334 206.250809,190.42 L201.090809,186.46 C200.690807,186.086665 200.404143,185.713335 200.230809,185.34 C200.057475,184.966665 199.970809,184.473336 199.970809,183.86 L199.970809,180.26 C199.970809,179.566663 200.104141,178.913336 200.370809,178.3 C200.637477,177.686664 200.997473,177.153336 201.450809,176.7 C201.904144,176.246664 202.437472,175.886668 203.050809,175.62 C203.664145,175.353332 204.317472,175.22 205.010809,175.22 L206.530809,175.22 Z M221.326213,198.94 C221.326213,199.313335 221.139548,199.5 220.766213,199.5 L217.206213,199.5 C216.832878,199.5 216.646213,199.313335 216.646213,198.94 L216.646213,176.06 C216.646213,175.686665 216.832878,175.5 217.206213,175.5 L220.766213,175.5 C221.139548,175.5 221.326213,175.686665 221.326213,176.06 L221.326213,198.94 Z M233.161618,175.22 C233.854954,175.22 234.508281,175.353332 235.121618,175.62 C235.734954,175.886668 236.268282,176.246664 236.721618,176.7 C237.174953,177.153336 237.53495,177.686664 237.801618,178.3 C238.068286,178.913336 238.201618,179.566663 238.201618,180.26 L238.201618,181.14 C238.201618,181.513335 238.028286,181.753333 237.681618,181.86 L234.041618,183.18 C233.694949,183.286667 233.521618,183.153335 233.521618,182.78 L233.521618,180.46 C233.521618,180.193332 233.428285,179.966668 233.241618,179.78 C233.05495,179.593332 232.828286,179.5 232.561618,179.5 L232.241618,179.5 C231.97495,179.5 231.748285,179.593332 231.561618,179.78 C231.37495,179.966668 231.281618,180.193332 231.281618,180.46 L231.281618,194.54 C231.281618,194.806668 231.37495,195.033332 231.561618,195.22 C231.748285,195.406668 231.97495,195.5 232.241618,195.5 L232.561618,195.5 C232.828286,195.5 233.05495,195.406668 233.241618,195.22 C233.428285,195.033332 233.521618,194.806668 233.521618,194.54 L233.521618,190.22 L232.401618,190.22 L232.401618,185.66 L237.641618,185.66 C238.014953,185.66 238.201618,185.846665 238.201618,186.22 L238.201618,194.74 C238.201618,195.433337 238.068286,196.086664 237.801618,196.7 C237.53495,197.313336 237.174953,197.846664 236.721618,198.3 C236.268282,198.753336 235.734954,199.113332 235.121618,199.38 C234.508281,199.646668 233.854954,199.78 233.161618,199.78 L231.641618,199.78 C230.948281,199.78 230.294954,199.646668 229.681618,199.38 C229.068281,199.113332 228.534953,198.753336 228.081618,198.3 C227.628282,197.846664 227.268286,197.313336 227.001618,196.7 C226.73495,196.086664 226.601618,195.433337 226.601618,194.74 L226.601618,180.26 C226.601618,179.566663 226.73495,178.913336 227.001618,178.3 C227.268286,177.686664 227.628282,177.153336 228.081618,176.7 C228.534953,176.246664 229.068281,175.886668 229.681618,175.62 C230.294954,175.353332 230.948281,175.22 231.641618,175.22 L233.161618,175.22 Z M255.717022,175.5 C256.090357,175.5 256.277022,175.686665 256.277022,176.06 L256.277022,198.94 C256.277022,199.313335 256.090357,199.5 255.717022,199.5 L253.157022,199.5 C252.997021,199.5 252.843689,199.446667 252.697022,199.34 C252.550355,199.233333 252.450356,199.113334 252.397022,198.98 L248.157022,188.54 L248.157022,198.94 C248.157022,199.313335 247.970357,199.5 247.597022,199.5 L244.037022,199.5 C243.663687,199.5 243.477022,199.313335 243.477022,198.94 L243.477022,176.06 C243.477022,175.686665 243.663687,175.5 244.037022,175.5 L246.677022,175.5 C246.837023,175.5 246.990355,175.553333 247.137022,175.66 C247.283689,175.766667 247.383688,175.886666 247.437022,176.02 L251.597022,187.66 L251.597022,176.06 C251.597022,175.686665 251.783687,175.5 252.157022,175.5 L255.717022,175.5 Z M271.192426,194.82 C271.565762,194.82 271.752426,195.006665 271.752426,195.38 L271.752426,198.94 C271.752426,199.313335 271.565762,199.5 271.192426,199.5 L262.512426,199.5 C262.139091,199.5 261.952426,199.313335 261.952426,198.94 L261.952426,176.06 C261.952426,175.686665 262.139091,175.5 262.512426,175.5 L271.192426,175.5 C271.565762,175.5 271.752426,175.686665 271.752426,176.06 L271.752426,179.62 C271.752426,179.993335 271.565762,180.18 271.192426,180.18 L266.632426,180.18 L266.632426,184.74 L270.592426,184.74 C270.965762,184.74 271.152426,184.926665 271.152426,185.3 L271.152426,188.86 C271.152426,189.233335 270.965762,189.42 270.592426,189.42 L266.632426,189.42 L266.632426,194.82 L271.192426,194.82 Z M281.907831,198.94 C281.907831,199.313335 281.707833,199.5 281.307831,199.5 L277.747831,199.5 C277.401162,199.5 277.227831,199.313335 277.227831,198.94 L277.227831,176.06 C277.227831,175.686665 277.414496,175.5 277.787831,175.5 L283.787831,175.5 C284.481168,175.5 285.134494,175.633332 285.747831,175.9 C286.361167,176.166668 286.894495,176.526664 287.347831,176.98 C287.801166,177.433336 288.161163,177.966664 288.427831,178.58 C288.694499,179.193336 288.827831,179.846663 288.827831,180.54 L288.827831,185.46 C288.827831,186.446672 288.5345,187.333329 287.947831,188.12 C287.361161,188.906671 286.654502,189.513331 285.827831,189.94 L289.627831,198.94 C289.707831,199.313335 289.574499,199.5 289.227831,199.5 L285.587831,199.5 C285.42783,199.5 285.274498,199.446667 285.127831,199.34 C284.981163,199.233333 284.881164,199.100001 284.827831,198.94 L281.907831,191.54 L281.907831,198.94 Z M281.907831,186.22 L283.187831,186.22 C283.454499,186.22 283.681163,186.126668 283.867831,185.94 C284.054498,185.753332 284.147831,185.526668 284.147831,185.26 L284.147831,180.74 C284.147831,180.473332 284.054498,180.246668 283.867831,180.06 C283.681163,179.873332 283.454499,179.78 283.187831,179.78 L281.907831,179.78 L281.907831,186.22 Z" id="Product-Designer" fill="#313120" sketch:type="MSShapeGroup"></path>
        </g>
    </g>
</svg>